<?xml version="1.0" encoding="UTF-8" standalone="no"?>
<!-- Created with Inkscape (http://www.inkscape.org/) -->

<svg
   xmlns:dc="http://purl.org/dc/elements/1.1/"
   xmlns:cc="http://creativecommons.org/ns#"
   xmlns:rdf="http://www.w3.org/1999/02/22-rdf-syntax-ns#"
   xmlns:svg="http://www.w3.org/2000/svg"
   xmlns="http://www.w3.org/2000/svg"
   xmlns:xlink="http://www.w3.org/1999/xlink"
   xmlns:sodipodi="http://sodipodi.sourceforge.net/DTD/sodipodi-0.dtd"
   xmlns:inkscape="http://www.inkscape.org/namespaces/inkscape"
   width="1920"
   height="1080"
   id="svg2"
   version="1.1"
   inkscape:version="0.48.4 r9939"
   sodipodi:docname="fondoIndexKids.svg"
   inkscape:export-filename="C:\Users\Harold\Documents\Universidad Nacional\2014-I\Tesis\Universidad de los Ni침os\p치gina\bocetos\indexKids\backgroundKids.png"
   inkscape:export-xdpi="90"
   inkscape:export-ydpi="90">
  <defs
     id="defs4">
    <linearGradient
       id="linearGradient5199">
      <stop
         style="stop-color:#ffffff;stop-opacity:1;"
         offset="0"
         id="stop5201" />
      <stop
         style="stop-color:#ffffff;stop-opacity:0.12857144;"
         offset="1"
         id="stop5203" />
    </linearGradient>
    <linearGradient
       id="linearGradient4939">
      <stop
         style="stop-color:#79bbea;stop-opacity:1;"
         offset="0"
         id="stop4941" />
      <stop
         id="stop4947"
         offset="0.5"
         style="stop-color:#ffffff;stop-opacity:0.49803922;" />
      <stop
         style="stop-color:#79bbea;stop-opacity:1;"
         offset="1"
         id="stop4943" />
    </linearGradient>
    <linearGradient
       id="linearGradient3902">
      <stop
         id="stop3904"
         offset="0"
         style="stop-color:#ffffff;stop-opacity:0.4642857;" />
      <stop
         id="stop3906"
         offset="1"
         style="stop-color:#ffffff;stop-opacity:0" />
    </linearGradient>
    <linearGradient
       id="linearGradient3874">
      <stop
         style="stop-color:#005ca2;stop-opacity:1;"
         offset="0"
         id="stop3876" />
      <stop
         style="stop-color:#009642;stop-opacity:1;"
         offset="1"
         id="stop3878" />
    </linearGradient>
    <linearGradient
       id="linearGradient3782">
      <stop
         style="stop-color:#0068f9;stop-opacity:1;"
         offset="0"
         id="stop3784" />
      <stop
         style="stop-color:#0097ee;stop-opacity:0.59285712;"
         offset="1"
         id="stop3786" />
    </linearGradient>
    <linearGradient
       id="linearGradient3792">
      <stop
         style="stop-color:#ffffff;stop-opacity:1;"
         offset="0"
         id="stop3794" />
      <stop
         style="stop-color:#ffffff;stop-opacity:0;"
         offset="1"
         id="stop3796" />
    </linearGradient>
    <linearGradient
       inkscape:collect="always"
       xlink:href="#linearGradient3874"
       id="linearGradient4030"
       gradientUnits="userSpaceOnUse"
       x1="0"
       y1="-27.913279"
       x2="1917.6813"
       y2="1050.3188"
       gradientTransform="translate(-2031.2502,-2884.5608)" />
    <radialGradient
       inkscape:collect="always"
       xlink:href="#linearGradient3902"
       id="radialGradient4032"
       gradientUnits="userSpaceOnUse"
       gradientTransform="matrix(0.85669982,-0.89394745,0.49999998,0.47916678,-2149.8631,-1759.5159)"
       cx="960"
       cy="512.36218"
       fx="960"
       fy="512.36218"
       r="960" />
    <linearGradient
       inkscape:collect="always"
       xlink:href="#linearGradient3782"
       id="linearGradient4034"
       gradientUnits="userSpaceOnUse"
       x1="-661.74237"
       y1="491.40866"
       x2="-1567.5785"
       y2="336.83337" />
    <linearGradient
       inkscape:collect="always"
       xlink:href="#linearGradient3792"
       id="linearGradient4036"
       gradientUnits="userSpaceOnUse"
       x1="-1645.2343"
       y1="701.60986"
       x2="-649.63214"
       y2="930.9173" />
    <linearGradient
       inkscape:collect="always"
       xlink:href="#linearGradient3782"
       id="linearGradient4038"
       gradientUnits="userSpaceOnUse"
       x1="-661.74237"
       y1="491.40866"
       x2="-1567.5785"
       y2="336.83337" />
    <linearGradient
       inkscape:collect="always"
       xlink:href="#linearGradient3792"
       id="linearGradient4040"
       gradientUnits="userSpaceOnUse"
       x1="-1645.2343"
       y1="701.60986"
       x2="-649.63214"
       y2="930.9173" />
    <linearGradient
       inkscape:collect="always"
       xlink:href="#linearGradient3782"
       id="linearGradient4042"
       gradientUnits="userSpaceOnUse"
       x1="-661.74237"
       y1="491.40866"
       x2="-1567.5785"
       y2="336.83337" />
    <linearGradient
       inkscape:collect="always"
       xlink:href="#linearGradient3792"
       id="linearGradient4044"
       gradientUnits="userSpaceOnUse"
       x1="-1645.2343"
       y1="701.60986"
       x2="-649.63214"
       y2="930.9173" />
    <linearGradient
       inkscape:collect="always"
       xlink:href="#linearGradient3782"
       id="linearGradient4046"
       gradientUnits="userSpaceOnUse"
       x1="-661.74237"
       y1="491.40866"
       x2="-1567.5785"
       y2="336.83337" />
    <linearGradient
       inkscape:collect="always"
       xlink:href="#linearGradient3792"
       id="linearGradient4048"
       gradientUnits="userSpaceOnUse"
       x1="-1645.2343"
       y1="701.60986"
       x2="-649.63214"
       y2="930.9173" />
    <linearGradient
       inkscape:collect="always"
       xlink:href="#linearGradient3782"
       id="linearGradient4050"
       gradientUnits="userSpaceOnUse"
       x1="-661.74237"
       y1="491.40866"
       x2="-1567.5785"
       y2="336.83337" />
    <linearGradient
       inkscape:collect="always"
       xlink:href="#linearGradient3792"
       id="linearGradient4052"
       gradientUnits="userSpaceOnUse"
       x1="-1645.2343"
       y1="701.60986"
       x2="-649.63214"
       y2="930.9173" />
    <linearGradient
       inkscape:collect="always"
       xlink:href="#linearGradient3782"
       id="linearGradient4054"
       gradientUnits="userSpaceOnUse"
       x1="-661.74237"
       y1="491.40866"
       x2="-1567.5785"
       y2="336.83337" />
    <linearGradient
       inkscape:collect="always"
       xlink:href="#linearGradient3792"
       id="linearGradient4056"
       gradientUnits="userSpaceOnUse"
       x1="-1645.2343"
       y1="701.60986"
       x2="-649.63214"
       y2="930.9173" />
    <linearGradient
       inkscape:collect="always"
       xlink:href="#linearGradient3782"
       id="linearGradient4058"
       gradientUnits="userSpaceOnUse"
       x1="-661.74237"
       y1="491.40866"
       x2="-1567.5785"
       y2="336.83337" />
    <linearGradient
       inkscape:collect="always"
       xlink:href="#linearGradient3792"
       id="linearGradient4060"
       gradientUnits="userSpaceOnUse"
       x1="-1645.2343"
       y1="701.60986"
       x2="-649.63214"
       y2="930.9173" />
    <linearGradient
       inkscape:collect="always"
       xlink:href="#linearGradient3782"
       id="linearGradient4062"
       gradientUnits="userSpaceOnUse"
       x1="-661.74237"
       y1="491.40866"
       x2="-1567.5785"
       y2="336.83337" />
    <linearGradient
       inkscape:collect="always"
       xlink:href="#linearGradient3792"
       id="linearGradient4064"
       gradientUnits="userSpaceOnUse"
       x1="-1645.2343"
       y1="701.60986"
       x2="-649.63214"
       y2="930.9173" />
    <linearGradient
       inkscape:collect="always"
       xlink:href="#linearGradient3782"
       id="linearGradient4066"
       gradientUnits="userSpaceOnUse"
       x1="-661.74237"
       y1="491.40866"
       x2="-1567.5785"
       y2="336.83337" />
    <linearGradient
       inkscape:collect="always"
       xlink:href="#linearGradient3792"
       id="linearGradient4068"
       gradientUnits="userSpaceOnUse"
       x1="-1645.2343"
       y1="701.60986"
       x2="-649.63214"
       y2="930.9173" />
    <linearGradient
       inkscape:collect="always"
       xlink:href="#linearGradient3782"
       id="linearGradient3203"
       gradientUnits="userSpaceOnUse"
       x1="-661.74237"
       y1="491.40866"
       x2="-1567.5785"
       y2="336.83337" />
    <linearGradient
       inkscape:collect="always"
       xlink:href="#linearGradient3792"
       id="linearGradient3205"
       gradientUnits="userSpaceOnUse"
       x1="-1645.2343"
       y1="701.60986"
       x2="-649.63214"
       y2="930.9173" />
    <linearGradient
       inkscape:collect="always"
       xlink:href="#linearGradient3782"
       id="linearGradient3207"
       gradientUnits="userSpaceOnUse"
       x1="-661.74237"
       y1="491.40866"
       x2="-1567.5785"
       y2="336.83337" />
    <linearGradient
       inkscape:collect="always"
       xlink:href="#linearGradient3792"
       id="linearGradient3209"
       gradientUnits="userSpaceOnUse"
       x1="-1645.2343"
       y1="701.60986"
       x2="-649.63214"
       y2="930.9173" />
    <linearGradient
       inkscape:collect="always"
       xlink:href="#linearGradient3782"
       id="linearGradient3211"
       gradientUnits="userSpaceOnUse"
       x1="-661.74237"
       y1="491.40866"
       x2="-1567.5785"
       y2="336.83337" />
    <linearGradient
       inkscape:collect="always"
       xlink:href="#linearGradient3792"
       id="linearGradient3213"
       gradientUnits="userSpaceOnUse"
       x1="-1645.2343"
       y1="701.60986"
       x2="-649.63214"
       y2="930.9173" />
    <linearGradient
       inkscape:collect="always"
       xlink:href="#linearGradient3782"
       id="linearGradient3215"
       gradientUnits="userSpaceOnUse"
       x1="-661.74237"
       y1="491.40866"
       x2="-1567.5785"
       y2="336.83337" />
    <linearGradient
       inkscape:collect="always"
       xlink:href="#linearGradient3792"
       id="linearGradient3217"
       gradientUnits="userSpaceOnUse"
       x1="-1645.2343"
       y1="701.60986"
       x2="-649.63214"
       y2="930.9173" />
    <linearGradient
       inkscape:collect="always"
       xlink:href="#linearGradient3782"
       id="linearGradient3219"
       gradientUnits="userSpaceOnUse"
       x1="-661.74237"
       y1="491.40866"
       x2="-1567.5785"
       y2="336.83337" />
    <linearGradient
       inkscape:collect="always"
       xlink:href="#linearGradient3792"
       id="linearGradient3221"
       gradientUnits="userSpaceOnUse"
       x1="-1645.2343"
       y1="701.60986"
       x2="-649.63214"
       y2="930.9173" />
    <radialGradient
       inkscape:collect="always"
       xlink:href="#linearGradient3782"
       id="radialGradient4954"
       cx="960"
       cy="512.36218"
       fx="960"
       fy="512.36218"
       r="960"
       gradientTransform="matrix(2.282203,1.2644332,-0.50000004,0.90246122,-970.73386,-1163.8806)"
       gradientUnits="userSpaceOnUse" />
    <radialGradient
       inkscape:collect="always"
       xlink:href="#linearGradient5199"
       id="radialGradient5207"
       cx="1553.6536"
       cy="157.02451"
       fx="1553.6536"
       fy="157.02451"
       r="159.99574"
       gradientUnits="userSpaceOnUse"
       gradientTransform="matrix(1.3865616,-0.06065513,0.056169,1.2840101,-607.55093,51.159527)" />
    <radialGradient
       inkscape:collect="always"
       xlink:href="#linearGradient5199"
       id="radialGradient5222"
       gradientUnits="userSpaceOnUse"
       gradientTransform="matrix(1.3865616,-0.06065513,0.056169,1.2840101,-607.55093,51.159527)"
       cx="1553.6536"
       cy="157.02451"
       fx="1553.6536"
       fy="157.02451"
       r="159.99574" />
    <radialGradient
       inkscape:collect="always"
       xlink:href="#linearGradient5199"
       id="radialGradient5226"
       gradientUnits="userSpaceOnUse"
       gradientTransform="matrix(1.3865616,-0.06065513,0.056169,1.2840101,-607.55093,51.159527)"
       cx="1553.6536"
       cy="157.02451"
       fx="1553.6536"
       fy="157.02451"
       r="159.99574" />
    <radialGradient
       inkscape:collect="always"
       xlink:href="#linearGradient5199"
       id="radialGradient5230"
       gradientUnits="userSpaceOnUse"
       gradientTransform="matrix(1.3865616,-0.06065513,0.056169,1.2840101,-607.55093,51.159527)"
       cx="1553.6536"
       cy="157.02451"
       fx="1553.6536"
       fy="157.02451"
       r="159.99574" />
    <radialGradient
       inkscape:collect="always"
       xlink:href="#linearGradient5199"
       id="radialGradient5234"
       gradientUnits="userSpaceOnUse"
       gradientTransform="matrix(1.3865616,-0.06065513,0.056169,1.2840101,-607.55093,51.159527)"
       cx="1553.6536"
       cy="157.02451"
       fx="1553.6536"
       fy="157.02451"
       r="159.99574" />
  </defs>
  <sodipodi:namedview
     id="base"
     pagecolor="#ffffff"
     bordercolor="#666666"
     borderopacity="1.0"
     inkscape:pageopacity="0.0"
     inkscape:pageshadow="2"
     inkscape:zoom="0.44415145"
     inkscape:cx="1239.4847"
     inkscape:cy="525.87347"
     inkscape:document-units="px"
     inkscape:current-layer="layer1"
     showgrid="false"
     showguides="true"
     inkscape:guide-bbox="true"
     inkscape:window-width="1366"
     inkscape:window-height="705"
     inkscape:window-x="-8"
     inkscape:window-y="-8"
     inkscape:window-maximized="1">
    <sodipodi:guide
       orientation="1,0"
       position="480,156"
       id="guide3755" />
    <sodipodi:guide
       orientation="0,1"
       position="480,312"
       id="guide3757" />
    <sodipodi:guide
       orientation="0,1"
       position="480,924"
       id="guide3759" />
    <sodipodi:guide
       orientation="1,0"
       position="1440,924"
       id="guide3761" />
    <sodipodi:guide
       orientation="1,0"
       position="277,540"
       id="guide3941" />
    <sodipodi:guide
       orientation="1,0"
       position="1643,540"
       id="guide3943" />
    <sodipodi:guide
       orientation="0,1"
       position="960,1000"
       id="guide3973" />
  </sodipodi:namedview>
  <metadata
     id="metadata7">
    <rdf:RDF>
      <cc:Work
         rdf:about="">
        <dc:format>image/svg+xml</dc:format>
        <dc:type
           rdf:resource="http://purl.org/dc/dcmitype/StillImage" />
        <dc:title />
      </cc:Work>
    </rdf:RDF>
  </metadata>
  <g
     inkscape:label="Capa 1"
     inkscape:groupmode="layer"
     id="layer1"
     transform="translate(0,27.637817)">
    <rect
       y="-376.20917"
       x="-925.71429"
       height="348.57135"
       width="4422.8574"
       id="rect3830"
       style="fill:#ffffff;fill-opacity:1;stroke:none" />
    <text
       xml:space="preserve"
       style="font-size:40px;font-style:normal;font-weight:normal;line-height:125%;letter-spacing:0px;word-spacing:0px;fill:#000000;fill-opacity:1;stroke:none;font-family:Sans"
       x="322.31027"
       y="362.33795"
       id="text3870"
       sodipodi:linespacing="125%"
       transform="translate(0,-27.637817)"><tspan
         sodipodi:role="line"
         x="322.31027"
         y="362.33795"
         id="tspan3874" /></text>
    <rect
       style="fill:url(#radialGradient4954);fill-opacity:1.0;stroke:none"
       id="rect4429"
       width="1920"
       height="1080"
       x="4"
       y="-27.637817"
       ry="0" />
    <path
       style="fill:#ffffff;stroke:none;opacity:0.39183673"
       d="m 595.25,-303.125 c 128.5446,242.519659 195.24373,647.33554 426.1562,787.71875 230.1692,139.93131 1236.5199,-158.1411 1243,-160.0625 l 0.5313,-115.34375 c 0,0 -1004.3441,352.11197 -1220.5,228.125 C 828.28156,313.32553 867.07585,-61.32409 738.53125,-303.84375 z"
       id="path5185"
       inkscape:connector-curvature="0"
       sodipodi:nodetypes="csccscc"
       transform="translate(0,-27.637817)" />
    <path
       style="fill:#ffffff;stroke:none;opacity:0.4244898"
       d="m -252.5,411.03125 c 0,0 746.07301,102.50283 1062.46875,259.0625 384.93535,190.47456 937.15625,706.96875 937.15625,706.96875 l 185.1562,-0.6875 C 1880.6819,1335.7008 1259.1731,848.02075 890.375,665.53125 573.97926,508.97158 -251.75167,237.21875 -251.75167,237.21875 z"
       id="path5111"
       inkscape:connector-curvature="0"
       sodipodi:nodetypes="csccscc"
       transform="translate(0,-27.637817)" />
    <path
       sodipodi:type="arc"
       style="opacity:0.59591836;fill:#ffffff;fill-opacity:1;stroke:none"
       id="path3939"
       sodipodi:cx="426.57156"
       sodipodi:cy="681.40259"
       sodipodi:rx="86.597427"
       sodipodi:ry="86.597427"
       d="m 513.16899,681.40259 c 0,47.82644 -38.77099,86.59743 -86.59743,86.59743 -47.82643,0 -86.59742,-38.77099 -86.59742,-86.59743 0,-47.82644 38.77099,-86.59743 86.59742,-86.59743 47.82644,0 86.59743,38.77099 86.59743,86.59743 z"
       transform="matrix(1.1624965,0,0,1.1624965,-57.496083,-55.621288)" />
    <path
       style="fill:#ffffff;stroke:none;opacity:0.52653061"
       d="M 446.21875,-309.65625 245.40625,-308 c 120.63851,256.80481 490.76794,754.95377 711.03125,857.40625 390.7759,181.76409 1305.7548,99.80597 1305.7548,99.80597 l -0.4735,-218.39972 c 0,0 -1062.4943,215.98297 -1268.81255,85.4375 C 786.58812,385.70453 564.9256,-54.019603 446.21875,-309.65625 z"
       id="path5187"
       inkscape:connector-curvature="0"
       sodipodi:nodetypes="ccsccsc"
       transform="translate(0,-27.637817)" />
    <path
       style="fill:#ffffff;stroke:none;opacity:0.3755102"
       d="m 2265,324.375 c 0,0 -1012.6813,300.60196 -1243.5938,160.21875 C 790.49368,344.21054 723.7946,-60.605341 595.25,-303.125 l -146.03125,-0.125 c 119.39821,256.499425 339.05619,690.02184 543.6875,819.5 206.31825,130.54547 1268.81255,-85.4375 1268.81255,-85.4375 l 3.8518,-1.29524 z"
       id="path5195"
       inkscape:connector-curvature="0"
       sodipodi:nodetypes="csccsccc"
       transform="translate(0,-27.637817)" />
    <path
       style="fill:#ffffff;stroke:none;opacity:0.48571429"
       d="M -249.0625,-102.65625 -245.9375,80 c 0,0 837.26051,382.50283 1153.65625,539.0625 384.93535,190.47456 1216.53125,758 1216.53125,758 l 135.4375,-1.9375 -0.031,-94.125 C 1995.1973,1125.9967 1280.0388,761.0529 917.875,574.84375 641.18403,432.58107 -81.122156,-1.4158685 -249.0625,-102.65625 z"
       id="path5191"
       inkscape:connector-curvature="0"
       sodipodi:nodetypes="ccscccsc"
       transform="translate(0,-27.637817)" />
    <path
       style="fill:#ffffff;stroke:none;opacity:0.36326531"
       d="m -249.21875,237.21875 c 0,0 823.19801,271.75283 1139.59375,428.3125 384.9354,190.47456 1046.9688,714.81255 1046.9688,714.81255 l 186.6248,0.096 c 0,0 -831.3145,-570.90264 -1216.24985,-761.3772 C 591.32301,462.50283 -248.89257,80 -248.89257,80 z"
       id="path5189"
       inkscape:connector-curvature="0"
       sodipodi:nodetypes="csccscc"
       transform="translate(0,-27.637817)" />
    <path
       sodipodi:nodetypes="sccscccs"
       inkscape:connector-curvature="0"
       id="path5193"
       d="M 956.43411,521.75413 C 1347.21,703.51822 2259.4023,622.78062 2259.4023,622.78062 l 2.6186,631.96908 C 1999.4469,1100.5313 1281.1059,733.94828 917.87881,547.19244 603.93349,385.77516 -285.93497,-152.54326 -285.93497,-152.54326 l 0,-180.52947 529.50213,-6.46333 c 118.70685,255.636659 491.49258,758.32091 712.86695,861.29019 z"
       style="fill:#ffffff;stroke:none;opacity:0.67346939" />
    <rect
       style="fill:#ffffff;fill-opacity:1;stroke:none"
       id="rect3824"
       width="573.85181"
       height="1154.2856"
       x="1920"
       y="-60.391518" />
    <rect
       style="fill:#ffffff;fill-opacity:1;stroke:none"
       id="rect3874"
       width="2840.7434"
       height="452.64609"
       x="-398.66168"
       y="1052.3622"
       inkscape:export-filename="C:\Users\Harold\Documents\Universidad Nacional\2014-I\Tesis\Universidad de los Ni침os\p치gina\bocetos\indexTop\prev.png"
       inkscape:export-xdpi="90"
       inkscape:export-ydpi="90" />
    <rect
       y="-102.93371"
       x="-364.06961"
       height="1154.2856"
       width="364.06961"
       id="rect3826"
       style="fill:#ffffff;fill-opacity:1;stroke:none" />
    <rect
       style="fill:#ffffff;fill-opacity:1;stroke:none"
       id="rect3828"
       width="4422.8574"
       height="396.68494"
       x="-1103.1879"
       y="-424.32275" />
    <path
       sodipodi:type="arc"
       style="fill:url(#radialGradient5207);fill-opacity:1;stroke:none"
       id="path5197"
       sodipodi:cx="1599.9957"
       sodipodi:cy="110.75044"
       sodipodi:rx="159.99574"
       sodipodi:ry="159.99574"
       d="m 1759.9915,110.75044 c 0,88.36321 -71.6326,159.99575 -159.9958,159.99575 -88.3632,0 -159.9957,-71.63254 -159.9957,-159.99575 0,-88.363206 71.6325,-159.99574 159.9957,-159.99574 88.3632,0 159.9958,71.632534 159.9958,159.99574 z"
       transform="matrix(0.55987666,0,0,0.55987666,688.81501,144.64304)" />
    <path
       transform="matrix(0.42099228,0,0,0.42099228,298.60382,900.64481)"
       d="m 1759.9915,110.75044 c 0,88.36321 -71.6326,159.99575 -159.9958,159.99575 -88.3632,0 -159.9957,-71.63254 -159.9957,-159.99575 0,-88.363206 71.6325,-159.99574 159.9957,-159.99574 88.3632,0 159.9958,71.632534 159.9958,159.99574 z"
       sodipodi:ry="159.99574"
       sodipodi:rx="159.99574"
       sodipodi:cy="110.75044"
       sodipodi:cx="1599.9957"
       id="path5220"
       style="fill:url(#radialGradient5222);fill-opacity:1;stroke:none"
       sodipodi:type="arc" />
    <path
       sodipodi:type="arc"
       style="fill:url(#radialGradient5226);fill-opacity:1;stroke:none"
       id="path5224"
       sodipodi:cx="1599.9957"
       sodipodi:cy="110.75044"
       sodipodi:rx="159.99574"
       sodipodi:ry="159.99574"
       d="m 1759.9915,110.75044 c 0,88.36321 -71.6326,159.99575 -159.9958,159.99575 -88.3632,0 -159.9957,-71.63254 -159.9957,-159.99575 0,-88.363206 71.6325,-159.99574 159.9957,-159.99574 88.3632,0 159.9958,71.632534 159.9958,159.99574 z"
       transform="matrix(0.78013205,0,0,0.78013205,-1142.2858,925.0852)" />
    <path
       transform="matrix(0.23652964,0,0,0.23652964,-263.76426,530.6476)"
       d="m 1759.9915,110.75044 c 0,88.36321 -71.6326,159.99575 -159.9958,159.99575 -88.3632,0 -159.9957,-71.63254 -159.9957,-159.99575 0,-88.363206 71.6325,-159.99574 159.9957,-159.99574 88.3632,0 159.9958,71.632534 159.9958,159.99574 z"
       sodipodi:ry="159.99574"
       sodipodi:rx="159.99574"
       sodipodi:cy="110.75044"
       sodipodi:cx="1599.9957"
       id="path5228"
       style="fill:url(#radialGradient5230);fill-opacity:1;stroke:none"
       sodipodi:type="arc" />
    <path
       transform="matrix(0.33655937,0,0,0.33655937,510.33451,19.363908)"
       d="m 1759.9915,110.75044 c 0,88.36321 -71.6326,159.99575 -159.9958,159.99575 -88.3632,0 -159.9957,-71.63254 -159.9957,-159.99575 0,-88.363206 71.6325,-159.99574 159.9957,-159.99574 88.3632,0 159.9958,71.632534 159.9958,159.99574 z"
       sodipodi:ry="159.99574"
       sodipodi:rx="159.99574"
       sodipodi:cy="110.75044"
       sodipodi:cx="1599.9957"
       id="path5232"
       style="fill:url(#radialGradient5234);fill-opacity:1;stroke:none"
       sodipodi:type="arc" />
    <path
       transform="matrix(0.04205829,0,0,0.04205829,1709.8715,412.09405)"
       d="m 1759.9915,110.75044 c 0,88.36321 -71.6326,159.99575 -159.9958,159.99575 -88.3632,0 -159.9957,-71.63254 -159.9957,-159.99575 0,-88.363206 71.6325,-159.99574 159.9957,-159.99574 88.3632,0 159.9958,71.632534 159.9958,159.99574 z"
       sodipodi:ry="159.99574"
       sodipodi:rx="159.99574"
       sodipodi:cy="110.75044"
       sodipodi:cx="1599.9957"
       id="path5236"
       style="fill:#ffffff;fill-opacity:1;stroke:none"
       sodipodi:type="arc" />
    <path
       sodipodi:type="arc"
       style="fill:#ffffff;fill-opacity:1;stroke:none"
       id="path5240"
       sodipodi:cx="1599.9957"
       sodipodi:cy="110.75044"
       sodipodi:rx="159.99574"
       sodipodi:ry="159.99574"
       d="m 1759.9915,110.75044 c 0,88.36321 -71.6326,159.99575 -159.9958,159.99575 -88.3632,0 -159.9957,-71.63254 -159.9957,-159.99575 0,-88.363206 71.6325,-159.99574 159.9957,-159.99574 88.3632,0 159.9958,71.632534 159.9958,159.99574 z"
       transform="matrix(0.10006701,0,0,0.10006701,1581.4503,430.81845)" />
    <path
       transform="matrix(0.16726245,0,0,0.16726245,1525.7939,439.92445)"
       d="m 1759.9915,110.75044 c 0,88.36321 -71.6326,159.99575 -159.9958,159.99575 -88.3632,0 -159.9957,-71.63254 -159.9957,-159.99575 0,-88.363206 71.6325,-159.99574 159.9957,-159.99574 88.3632,0 159.9958,71.632534 159.9958,159.99574 z"
       sodipodi:ry="159.99574"
       sodipodi:rx="159.99574"
       sodipodi:cy="110.75044"
       sodipodi:cx="1599.9957"
       id="path5242"
       style="fill:#ffffff;fill-opacity:1;stroke:none"
       sodipodi:type="arc" />
    <path
       sodipodi:type="arc"
       style="fill:#ffffff;fill-opacity:1;stroke:none"
       id="path5244"
       sodipodi:cx="1599.9957"
       sodipodi:cy="110.75044"
       sodipodi:rx="159.99574"
       sodipodi:ry="159.99574"
       d="m 1759.9915,110.75044 c 0,88.36321 -71.6326,159.99575 -159.9958,159.99575 -88.3632,0 -159.9957,-71.63254 -159.9957,-159.99575 0,-88.363206 71.6325,-159.99574 159.9957,-159.99574 88.3632,0 159.9958,71.632534 159.9958,159.99574 z"
       transform="matrix(0.04205829,0,0,0.04205829,67.016681,211.51968)" />
    <path
       transform="matrix(0.07832788,0,0,0.07832788,-30.679865,239.60804)"
       d="m 1759.9915,110.75044 c 0,88.36321 -71.6326,159.99575 -159.9958,159.99575 -88.3632,0 -159.9957,-71.63254 -159.9957,-159.99575 0,-88.363206 71.6325,-159.99574 159.9957,-159.99574 88.3632,0 159.9958,71.632534 159.9958,159.99574 z"
       sodipodi:ry="159.99574"
       sodipodi:rx="159.99574"
       sodipodi:cy="110.75044"
       sodipodi:cx="1599.9957"
       id="path5246"
       style="fill:#ffffff;fill-opacity:1;stroke:none"
       sodipodi:type="arc" />
    <path
       sodipodi:type="arc"
       style="fill:#ffffff;fill-opacity:1;stroke:none"
       id="path5248"
       sodipodi:cx="1599.9957"
       sodipodi:cy="110.75044"
       sodipodi:rx="159.99574"
       sodipodi:ry="159.99574"
       d="m 1759.9915,110.75044 c 0,88.36321 -71.6326,159.99575 -159.9958,159.99575 -88.3632,0 -159.9957,-71.63254 -159.9957,-159.99575 0,-88.363206 71.6325,-159.99574 159.9957,-159.99574 88.3632,0 159.9958,71.632534 159.9958,159.99574 z"
       transform="matrix(0.13465375,0,0,0.13465375,-73.582568,245.85999)" />
    <path
       sodipodi:type="arc"
       style="fill:#ffffff;fill-opacity:1;stroke:none"
       id="path5250"
       sodipodi:cx="1599.9957"
       sodipodi:cy="110.75044"
       sodipodi:rx="159.99574"
       sodipodi:ry="159.99574"
       d="m 1759.9915,110.75044 c 0,88.36321 -71.6326,159.99575 -159.9958,159.99575 -88.3632,0 -159.9957,-71.63254 -159.9957,-159.99575 0,-88.363206 71.6325,-159.99574 159.9957,-159.99574 88.3632,0 159.9958,71.632534 159.9958,159.99574 z"
       transform="matrix(0.05296556,0,0,0.05296556,57.434704,302.12548)" />
    <path
       sodipodi:type="arc"
       style="fill:#ffffff;fill-opacity:1;stroke:none"
       id="path5252"
       sodipodi:cx="1599.9957"
       sodipodi:cy="110.75044"
       sodipodi:rx="159.99574"
       sodipodi:ry="159.99574"
       d="m 1759.9915,110.75044 c 0,88.36321 -71.6326,159.99575 -159.9958,159.99575 -88.3632,0 -159.9957,-71.63254 -159.9957,-159.99575 0,-88.363206 71.6325,-159.99574 159.9957,-159.99574 88.3632,0 159.9958,71.632534 159.9958,159.99574 z"
       transform="matrix(0.04205829,0,0,0.04205829,1424.7713,643.37205)" />
    <path
       transform="matrix(0.10006701,0,0,0.10006701,1296.3501,662.09645)"
       d="m 1759.9915,110.75044 c 0,88.36321 -71.6326,159.99575 -159.9958,159.99575 -88.3632,0 -159.9957,-71.63254 -159.9957,-159.99575 0,-88.363206 71.6325,-159.99574 159.9957,-159.99574 88.3632,0 159.9958,71.632534 159.9958,159.99574 z"
       sodipodi:ry="159.99574"
       sodipodi:rx="159.99574"
       sodipodi:cy="110.75044"
       sodipodi:cx="1599.9957"
       id="path5254"
       style="fill:#ffffff;fill-opacity:1;stroke:none"
       sodipodi:type="arc" />
    <path
       sodipodi:type="arc"
       style="fill:#ffffff;fill-opacity:1;stroke:none"
       id="path5256"
       sodipodi:cx="1599.9957"
       sodipodi:cy="110.75044"
       sodipodi:rx="159.99574"
       sodipodi:ry="159.99574"
       d="m 1759.9915,110.75044 c 0,88.36321 -71.6326,159.99575 -159.9958,159.99575 -88.3632,0 -159.9957,-71.63254 -159.9957,-159.99575 0,-88.363206 71.6325,-159.99574 159.9957,-159.99574 88.3632,0 159.9958,71.632534 159.9958,159.99574 z"
       transform="matrix(0.16726245,0,0,0.16726245,1240.6937,671.20245)" />
    <path
       transform="matrix(0.04205829,0,0,0.04205829,1464.9421,723.71364)"
       d="m 1759.9915,110.75044 c 0,88.36321 -71.6326,159.99575 -159.9958,159.99575 -88.3632,0 -159.9957,-71.63254 -159.9957,-159.99575 0,-88.363206 71.6325,-159.99574 159.9957,-159.99574 88.3632,0 159.9958,71.632534 159.9958,159.99574 z"
       sodipodi:ry="159.99574"
       sodipodi:rx="159.99574"
       sodipodi:cy="110.75044"
       sodipodi:cx="1599.9957"
       id="path5258"
       style="fill:#ffffff;fill-opacity:1;stroke:none"
       sodipodi:type="arc" />
    <path
       sodipodi:type="arc"
       style="fill:#ffffff;fill-opacity:1;stroke:none"
       id="path5260"
       sodipodi:cx="1599.9957"
       sodipodi:cy="110.75044"
       sodipodi:rx="159.99574"
       sodipodi:ry="159.99574"
       d="m 1759.9915,110.75044 c 0,88.36321 -71.6326,159.99575 -159.9958,159.99575 -88.3632,0 -159.9957,-71.63254 -159.9957,-159.99575 0,-88.363206 71.6325,-159.99574 159.9957,-159.99574 88.3632,0 159.9958,71.632534 159.9958,159.99574 z"
       transform="matrix(0.04205829,0,0,0.04205829,1398.5373,736.83063)" />
    <path
       sodipodi:type="arc"
       style="fill:#ffffff;fill-opacity:1;stroke:none"
       id="path5262"
       sodipodi:cx="1599.9957"
       sodipodi:cy="110.75044"
       sodipodi:rx="159.99574"
       sodipodi:ry="159.99574"
       d="m 1759.9915,110.75044 c 0,88.36321 -71.6326,159.99575 -159.9958,159.99575 -88.3632,0 -159.9957,-71.63254 -159.9957,-159.99575 0,-88.363206 71.6325,-159.99574 159.9957,-159.99574 88.3632,0 159.9958,71.632534 159.9958,159.99574 z"
       transform="matrix(0.06419928,0,0,0.06419928,1462.7733,677.54618)" />
    <path
       transform="matrix(0.04205829,0,0,0.04205829,951.69921,543.83851)"
       d="m 1759.9915,110.75044 c 0,88.36321 -71.6326,159.99575 -159.9958,159.99575 -88.3632,0 -159.9957,-71.63254 -159.9957,-159.99575 0,-88.363206 71.6325,-159.99574 159.9957,-159.99574 88.3632,0 159.9958,71.632534 159.9958,159.99574 z"
       sodipodi:ry="159.99574"
       sodipodi:rx="159.99574"
       sodipodi:cy="110.75044"
       sodipodi:cx="1599.9957"
       id="path5264"
       style="fill:#ffffff;fill-opacity:1;stroke:none"
       sodipodi:type="arc" />
    <path
       sodipodi:type="arc"
       style="fill:#ffffff;fill-opacity:1;stroke:none"
       id="path5266"
       sodipodi:cx="1599.9957"
       sodipodi:cy="110.75044"
       sodipodi:rx="159.99574"
       sodipodi:ry="159.99574"
       d="m 1759.9915,110.75044 c 0,88.36321 -71.6326,159.99575 -159.9958,159.99575 -88.3632,0 -159.9957,-71.63254 -159.9957,-159.99575 0,-88.363206 71.6325,-159.99574 159.9957,-159.99574 88.3632,0 159.9958,71.632534 159.9958,159.99574 z"
       transform="matrix(0.06163729,0,0,0.06163729,871.44343,489.96163)" />
    <path
       transform="matrix(0.22106405,0,0,0.22106405,611.24038,527.38414)"
       d="m 1759.9915,110.75044 c 0,88.36321 -71.6326,159.99575 -159.9958,159.99575 -88.3632,0 -159.9957,-71.63254 -159.9957,-159.99575 0,-88.363206 71.6325,-159.99574 159.9957,-159.99574 88.3632,0 159.9958,71.632534 159.9958,159.99574 z"
       sodipodi:ry="159.99574"
       sodipodi:rx="159.99574"
       sodipodi:cy="110.75044"
       sodipodi:cx="1599.9957"
       id="path5268"
       style="fill:#ffffff;fill-opacity:1;stroke:none"
       sodipodi:type="arc" />
    <path
       sodipodi:type="arc"
       style="fill:#ffffff;fill-opacity:1;stroke:none"
       id="path5270"
       sodipodi:cx="1599.9957"
       sodipodi:cy="110.75044"
       sodipodi:rx="159.99574"
       sodipodi:ry="159.99574"
       d="m 1759.9915,110.75044 c 0,88.36321 -71.6326,159.99575 -159.9958,159.99575 -88.3632,0 -159.9957,-71.63254 -159.9957,-159.99575 0,-88.363206 71.6325,-159.99574 159.9957,-159.99574 88.3632,0 159.9958,71.632534 159.9958,159.99574 z"
       transform="matrix(0.04205829,0,0,0.04205829,838.36018,550.19205)" />
    <path
       transform="matrix(0.08048801,0,0,0.08048801,778.92232,602.91288)"
       d="m 1759.9915,110.75044 c 0,88.36321 -71.6326,159.99575 -159.9958,159.99575 -88.3632,0 -159.9957,-71.63254 -159.9957,-159.99575 0,-88.363206 71.6325,-159.99574 159.9957,-159.99574 88.3632,0 159.9958,71.632534 159.9958,159.99574 z"
       sodipodi:ry="159.99574"
       sodipodi:rx="159.99574"
       sodipodi:cy="110.75044"
       sodipodi:cx="1599.9957"
       id="path5272"
       style="fill:#ffffff;fill-opacity:1;stroke:none"
       sodipodi:type="arc" />
    <path
       transform="matrix(0.06419928,0,0,0.06419928,869.80368,616.33885)"
       d="m 1759.9915,110.75044 c 0,88.36321 -71.6326,159.99575 -159.9958,159.99575 -88.3632,0 -159.9957,-71.63254 -159.9957,-159.99575 0,-88.363206 71.6325,-159.99574 159.9957,-159.99574 88.3632,0 159.9958,71.632534 159.9958,159.99574 z"
       sodipodi:ry="159.99574"
       sodipodi:rx="159.99574"
       sodipodi:cy="110.75044"
       sodipodi:cx="1599.9957"
       id="path5274"
       style="fill:#ffffff;fill-opacity:1;stroke:none"
       sodipodi:type="arc" />
    <path
       sodipodi:type="arc"
       style="fill:#ffffff;fill-opacity:1;stroke:none"
       id="path5276"
       sodipodi:cx="1599.9957"
       sodipodi:cy="110.75044"
       sodipodi:rx="159.99574"
       sodipodi:ry="159.99574"
       d="m 1759.9915,110.75044 c 0,88.36321 -71.6326,159.99575 -159.9958,159.99575 -88.3632,0 -159.9957,-71.63254 -159.9957,-159.99575 0,-88.363206 71.6325,-159.99574 159.9957,-159.99574 88.3632,0 159.9958,71.632534 159.9958,159.99574 z"
       transform="matrix(0.04205829,0,0,0.04205829,511.06279,59.639665)" />
    <path
       transform="matrix(0.10006701,0,0,0.10006701,382.64159,78.364065)"
       d="m 1759.9915,110.75044 c 0,88.36321 -71.6326,159.99575 -159.9958,159.99575 -88.3632,0 -159.9957,-71.63254 -159.9957,-159.99575 0,-88.363206 71.6325,-159.99574 159.9957,-159.99574 88.3632,0 159.9958,71.632534 159.9958,159.99574 z"
       sodipodi:ry="159.99574"
       sodipodi:rx="159.99574"
       sodipodi:cy="110.75044"
       sodipodi:cx="1599.9957"
       id="path5278"
       style="fill:#ffffff;fill-opacity:1;stroke:none"
       sodipodi:type="arc" />
    <path
       sodipodi:type="arc"
       style="fill:#ffffff;fill-opacity:1;stroke:none"
       id="path5280"
       sodipodi:cx="1599.9957"
       sodipodi:cy="110.75044"
       sodipodi:rx="159.99574"
       sodipodi:ry="159.99574"
       d="m 1759.9915,110.75044 c 0,88.36321 -71.6326,159.99575 -159.9958,159.99575 -88.3632,0 -159.9957,-71.63254 -159.9957,-159.99575 0,-88.363206 71.6325,-159.99574 159.9957,-159.99574 88.3632,0 159.9958,71.632534 159.9958,159.99574 z"
       transform="matrix(0.16726245,0,0,0.16726245,326.98519,87.470065)" />
    <path
       transform="matrix(0.04205829,0,0,0.04205829,551.23359,139.98125)"
       d="m 1759.9915,110.75044 c 0,88.36321 -71.6326,159.99575 -159.9958,159.99575 -88.3632,0 -159.9957,-71.63254 -159.9957,-159.99575 0,-88.363206 71.6325,-159.99574 159.9957,-159.99574 88.3632,0 159.9958,71.632534 159.9958,159.99574 z"
       sodipodi:ry="159.99574"
       sodipodi:rx="159.99574"
       sodipodi:cy="110.75044"
       sodipodi:cx="1599.9957"
       id="path5282"
       style="fill:#ffffff;fill-opacity:1;stroke:none"
       sodipodi:type="arc" />
    <path
       sodipodi:type="arc"
       style="fill:#ffffff;fill-opacity:1;stroke:none"
       id="path5284"
       sodipodi:cx="1599.9957"
       sodipodi:cy="110.75044"
       sodipodi:rx="159.99574"
       sodipodi:ry="159.99574"
       d="m 1759.9915,110.75044 c 0,88.36321 -71.6326,159.99575 -159.9958,159.99575 -88.3632,0 -159.9957,-71.63254 -159.9957,-159.99575 0,-88.363206 71.6325,-159.99574 159.9957,-159.99574 88.3632,0 159.9958,71.632534 159.9958,159.99574 z"
       transform="matrix(0.04205829,0,0,0.04205829,484.82879,153.09824)" />
    <path
       sodipodi:type="arc"
       style="fill:#ffffff;fill-opacity:1;stroke:none"
       id="path5286"
       sodipodi:cx="1599.9957"
       sodipodi:cy="110.75044"
       sodipodi:rx="159.99574"
       sodipodi:ry="159.99574"
       d="m 1759.9915,110.75044 c 0,88.36321 -71.6326,159.99575 -159.9958,159.99575 -88.3632,0 -159.9957,-71.63254 -159.9957,-159.99575 0,-88.363206 71.6325,-159.99574 159.9957,-159.99574 88.3632,0 159.9958,71.632534 159.9958,159.99574 z"
       transform="matrix(0.06419928,0,0,0.06419928,549.06479,93.813795)" />
    <path
       transform="matrix(0.12312484,0,0,0.12312484,707.88855,493.8094)"
       d="m 1759.9915,110.75044 c 0,88.36321 -71.6326,159.99575 -159.9958,159.99575 -88.3632,0 -159.9957,-71.63254 -159.9957,-159.99575 0,-88.363206 71.6325,-159.99574 159.9957,-159.99574 88.3632,0 159.9958,71.632534 159.9958,159.99574 z"
       sodipodi:ry="159.99574"
       sodipodi:rx="159.99574"
       sodipodi:cy="110.75044"
       sodipodi:cx="1599.9957"
       id="path5288"
       style="fill:#ffffff;fill-opacity:1;stroke:none"
       sodipodi:type="arc" />
    <path
       transform="matrix(0.04205829,0,0,0.04205829,992.48486,619.87608)"
       d="m 1759.9915,110.75044 c 0,88.36321 -71.6326,159.99575 -159.9958,159.99575 -88.3632,0 -159.9957,-71.63254 -159.9957,-159.99575 0,-88.363206 71.6325,-159.99574 159.9957,-159.99574 88.3632,0 159.9958,71.632534 159.9958,159.99574 z"
       sodipodi:ry="159.99574"
       sodipodi:rx="159.99574"
       sodipodi:cy="110.75044"
       sodipodi:cx="1599.9957"
       id="path5290"
       style="fill:#ffffff;fill-opacity:1;stroke:none"
       sodipodi:type="arc" />
    <path
       style="fill:none;stroke:#ffffff;stroke-width:3;stroke-linecap:butt;stroke-linejoin:miter;stroke-miterlimit:4;stroke-opacity:1;stroke-dasharray:none"
       d="m 465.26046,-430.86754 c 0,0 264.5469,681.81749 566.08034,823.09138 387.6748,181.63269 1288.182,-104.14028 1288.182,-104.14028"
       id="path5292"
       inkscape:connector-curvature="0"
       sodipodi:nodetypes="csc" />
    <path
       sodipodi:nodetypes="csc"
       inkscape:connector-curvature="0"
       id="path5298"
       d="m 441.26046,-430.86754 c 0,0 264.5469,681.81749 566.08034,823.09138 387.6748,181.63269 1288.182,-104.14028 1288.182,-104.14028"
       style="fill:none;stroke:#ffffff;stroke-width:3;stroke-linecap:butt;stroke-linejoin:miter;stroke-miterlimit:4;stroke-opacity:1;stroke-dasharray:none" />
    <path
       style="fill:none;stroke:#ffffff;stroke-width:3;stroke-linecap:butt;stroke-linejoin:miter;stroke-miterlimit:4;stroke-opacity:1;stroke-dasharray:none"
       d="m 413.26046,-430.86754 c 0,0 264.5469,681.81749 566.08034,823.09138 387.6748,181.63269 1288.182,-104.14028 1288.182,-104.14028"
       id="path5300"
       inkscape:connector-curvature="0"
       sodipodi:nodetypes="csc" />
    <path
       sodipodi:nodetypes="csc"
       inkscape:connector-curvature="0"
       id="path5302"
       d="m 385.26046,-430.86754 c 0,0 264.5469,681.81749 566.08034,823.09138 387.6748,181.63269 1288.182,-104.14028 1288.182,-104.14028"
       style="fill:none;stroke:#ffffff;stroke-width:3;stroke-linecap:butt;stroke-linejoin:miter;stroke-miterlimit:4;stroke-opacity:1;stroke-dasharray:none" />
    <path
       style="fill:none;stroke:#ffffff;stroke-width:3;stroke-linecap:butt;stroke-linejoin:miter;stroke-miterlimit:4;stroke-opacity:1;stroke-dasharray:none"
       d="m 359.26046,-430.86754 c 0,0 264.5469,681.81749 566.08034,823.09138 387.6748,181.63269 1288.182,-104.14028 1288.182,-104.14028"
       id="path5304"
       inkscape:connector-curvature="0"
       sodipodi:nodetypes="csc" />
    <path
       sodipodi:nodetypes="csc"
       inkscape:connector-curvature="0"
       id="path5306"
       d="m 327.26046,-430.86754 c 0,0 264.5469,681.81749 566.08034,823.09138 387.6748,181.63269 1288.182,-104.14028 1288.182,-104.14028"
       style="fill:none;stroke:#ffffff;stroke-width:3;stroke-linecap:butt;stroke-linejoin:miter;stroke-miterlimit:4;stroke-opacity:1;stroke-dasharray:none" />
    <path
       style="fill:none;stroke:#ffffff;stroke-width:3;stroke-linecap:butt;stroke-linejoin:miter;stroke-miterlimit:4;stroke-opacity:1;stroke-dasharray:none"
       d="m 301.26046,-430.86754 c 0,0 264.5469,681.81749 566.08034,823.09138 387.6748,181.63269 1288.182,-104.14028 1288.182,-104.14028"
       id="path5308"
       inkscape:connector-curvature="0"
       sodipodi:nodetypes="csc" />
    <path
       sodipodi:nodetypes="csc"
       inkscape:connector-curvature="0"
       id="path5310"
       d="m 267.26046,-430.86754 c 0,0 264.5469,681.81749 566.08034,823.09138 387.6748,181.63269 1288.182,-104.14028 1288.182,-104.14028"
       style="fill:none;stroke:#ffffff;stroke-width:3;stroke-linecap:butt;stroke-linejoin:miter;stroke-miterlimit:4;stroke-opacity:1;stroke-dasharray:none" />
    <path
       style="fill:none;stroke:#ffffff;stroke-width:3;stroke-linecap:butt;stroke-linejoin:miter;stroke-miterlimit:4;stroke-opacity:1;stroke-dasharray:none"
       d="m 237.26046,-430.86754 c 0,0 264.5469,681.81749 566.08034,823.09138 387.6748,181.63269 1288.182,-104.14028 1288.182,-104.14028"
       id="path5312"
       inkscape:connector-curvature="0"
       sodipodi:nodetypes="csc" />
    <path
       sodipodi:type="arc"
       style="fill:none;stroke:#ffffff;stroke-width:3;stroke-miterlimit:4;stroke-opacity:1;stroke-dasharray:none"
       id="path3136"
       sodipodi:cx="461.55429"
       sodipodi:cy="751.28333"
       sodipodi:rx="121.58015"
       sodipodi:ry="121.58015"
       d="m 583.13444,751.28333 c 0,67.14686 -54.43329,121.58014 -121.58015,121.58014 -67.14686,0 -121.58015,-54.43328 -121.58015,-121.58014 0,-67.14687 54.43329,-121.58015 121.58015,-121.58015 67.14686,0 121.58015,54.43328 121.58015,121.58015 z"
       transform="matrix(1.1616873,0,0,1.1616873,-145.47324,-250.20532)" />
    <path
       style="fill:#ffffff;fill-opacity:1;stroke:none;opacity:0.59591837"
       d="m 388.46727,454.28187 c -78.00366,0 -141.25,63.24634 -141.25,141.25 0,78.00366 63.24634,141.25 141.25,141.25 78.00366,0 141.21875,-63.24634 141.21875,-141.25 0,-78.00366 -63.21509,-141.25 -141.21875,-141.25 z m 0,39.8125 c 56.02217,0 101.4375,45.41533 101.4375,101.4375 0,56.02217 -45.41533,101.4375 -101.4375,101.4375 -56.02217,0 -101.4375,-45.41533 -101.4375,-101.4375 0,-56.02217 45.41533,-101.4375 101.4375,-101.4375 z"
       id="path3924"
       inkscape:connector-curvature="0" />
    <path
       transform="matrix(1.1616873,0,0,1.1616873,-145.47324,-250.20532)"
       d="m 583.13444,751.28333 c 0,67.14686 -54.43329,121.58014 -121.58015,121.58014 -67.14686,0 -121.58015,-54.43328 -121.58015,-121.58014 0,-67.14687 54.43329,-121.58015 121.58015,-121.58015 67.14686,0 121.58015,54.43328 121.58015,121.58015 z"
       sodipodi:ry="121.58015"
       sodipodi:rx="121.58015"
       sodipodi:cy="751.28333"
       sodipodi:cx="461.55429"
       id="path3910"
       style="fill:none;stroke:#ffffff;stroke-width:3;stroke-miterlimit:4;stroke-opacity:1;stroke-dasharray:none"
       sodipodi:type="arc" />
    <path
       sodipodi:type="arc"
       style="fill:none;stroke:#ffffff;stroke-width:3;stroke-miterlimit:4;stroke-opacity:1;stroke-dasharray:none"
       id="path3937"
       sodipodi:cx="461.55429"
       sodipodi:cy="751.28333"
       sodipodi:rx="121.58015"
       sodipodi:ry="121.58015"
       d="m 583.13444,751.28333 c 0,67.14686 -54.43329,121.58014 -121.58015,121.58014 -67.14686,0 -121.58015,-54.43328 -121.58015,-121.58014 0,-67.14687 54.43329,-121.58015 121.58015,-121.58015 67.14686,0 121.58015,54.43328 121.58015,121.58015 z"
       transform="matrix(0.71351295,0,0,0.71351295,-6.1609739,25.71052)" />
    <path
       sodipodi:type="arc"
       style="fill:#ffffff;fill-opacity:1;stroke:none"
       id="path3943"
       sodipodi:cx="1599.9957"
       sodipodi:cy="110.75044"
       sodipodi:rx="159.99574"
       sodipodi:ry="159.99574"
       d="m 1759.9915,110.75044 c 0,88.36321 -71.6326,159.99575 -159.9958,159.99575 -88.3632,0 -159.9957,-71.63254 -159.9957,-159.99575 0,-88.363206 71.6325,-159.99574 159.9957,-159.99574 88.3632,0 159.9958,71.632534 159.9958,159.99574 z"
       transform="matrix(0.1049688,0,0,0.1049688,539.7602,826.18025)" />
    <path
       transform="matrix(0.04164412,0,0,0.04164412,626.44477,863.58852)"
       d="m 1759.9915,110.75044 c 0,88.36321 -71.6326,159.99575 -159.9958,159.99575 -88.3632,0 -159.9957,-71.63254 -159.9957,-159.99575 0,-88.363206 71.6325,-159.99574 159.9957,-159.99574 88.3632,0 159.9958,71.632534 159.9958,159.99574 z"
       sodipodi:ry="159.99574"
       sodipodi:rx="159.99574"
       sodipodi:cy="110.75044"
       sodipodi:cx="1599.9957"
       id="path3945"
       style="fill:#ffffff;fill-opacity:1;stroke:none"
       sodipodi:type="arc" />
    <path
       sodipodi:type="arc"
       style="fill:#ffffff;fill-opacity:1;stroke:none"
       id="path3947"
       sodipodi:cx="1599.9957"
       sodipodi:cy="110.75044"
       sodipodi:rx="159.99574"
       sodipodi:ry="159.99574"
       d="m 1759.9915,110.75044 c 0,88.36321 -71.6326,159.99575 -159.9958,159.99575 -88.3632,0 -159.9957,-71.63254 -159.9957,-159.99575 0,-88.363206 71.6325,-159.99574 159.9957,-159.99574 88.3632,0 159.9958,71.632534 159.9958,159.99574 z"
       transform="matrix(0.02933099,0,0,0.02933099,700.46279,838.7787)" />
    <path
       transform="matrix(0.06099333,0,0,0.06099333,639.6715,862.28989)"
       d="m 1759.9915,110.75044 c 0,88.36321 -71.6326,159.99575 -159.9958,159.99575 -88.3632,0 -159.9957,-71.63254 -159.9957,-159.99575 0,-88.363206 71.6325,-159.99574 159.9957,-159.99574 88.3632,0 159.9958,71.632534 159.9958,159.99574 z"
       sodipodi:ry="159.99574"
       sodipodi:rx="159.99574"
       sodipodi:cy="110.75044"
       sodipodi:cx="1599.9957"
       id="path3949"
       style="fill:#ffffff;fill-opacity:1;stroke:none"
       sodipodi:type="arc" />
  </g>
</svg>
