<?xml version="1.0" encoding="UTF-8" standalone="no"?>
<!-- Created with Inkscape (http://www.inkscape.org/) -->

<svg
   xmlns:dc="http://purl.org/dc/elements/1.1/"
   xmlns:cc="http://creativecommons.org/ns#"
   xmlns:rdf="http://www.w3.org/1999/02/22-rdf-syntax-ns#"
   xmlns:svg="http://www.w3.org/2000/svg"
   xmlns="http://www.w3.org/2000/svg"
   xmlns:sodipodi="http://sodipodi.sourceforge.net/DTD/sodipodi-0.dtd"
   xmlns:inkscape="http://www.inkscape.org/namespaces/inkscape"
   width="210mm"
   height="297mm"
   id="svg2"
   version="1.1"
   inkscape:version="0.48.4 r9939"
   sodipodi:docname="robot.svg">
  <defs
     id="defs4" />
  <sodipodi:namedview
     id="base"
     pagecolor="#ffffff"
     bordercolor="#666666"
     borderopacity="1.0"
     inkscape:pageopacity="0.0"
     inkscape:pageshadow="2"
     inkscape:zoom="0.55639577"
     inkscape:cx="255.32502"
     inkscape:cy="648.43885"
     inkscape:document-units="px"
     inkscape:current-layer="layer1"
     showgrid="false"
     inkscape:window-width="1366"
     inkscape:window-height="705"
     inkscape:window-x="-8"
     inkscape:window-y="-8"
     inkscape:window-maximized="1" />
  <metadata
     id="metadata7">
    <rdf:RDF>
      <cc:Work
         rdf:about="">
        <dc:format>image/svg+xml</dc:format>
        <dc:type
           rdf:resource="http://purl.org/dc/dcmitype/StillImage" />
        <dc:title></dc:title>
      </cc:Work>
    </rdf:RDF>
  </metadata>
  <g
     inkscape:label="Capa 1"
     inkscape:groupmode="layer"
     id="layer1">
    <rect
       style="fill:#cccccc;fill-opacity:1;stroke:#000000;stroke-width:1;stroke-miterlimit:4;stroke-opacity:1;stroke-dasharray:none"
       id="rect3860"
       width="112.29168"
       height="11.57531"
       x="-497.48822"
       y="480.63446"
       ry="0"
       transform="matrix(0.43500776,-0.9004267,0.90030595,0.43525763,0,0)"
       inkscape:export-filename="C:\Users\Harold\Documents\Universidad Nacional\2014-I\Tesis\Universidad de los Niños\página\bocetos\indexKids\robotUN.png"
       inkscape:export-xdpi="90"
       inkscape:export-ydpi="90" />
    <rect
       transform="matrix(0.787191,-0.61670928,0.61558582,0.78806986,0,0)"
       ry="0"
       y="599.71863"
       x="-118.34886"
       height="11.694778"
       width="81.703987"
       id="rect3862"
       style="fill:#cccccc;fill-opacity:1;stroke:#000000;stroke-width:1.00000048;stroke-miterlimit:4;stroke-opacity:1;stroke-dasharray:none"
       inkscape:export-filename="C:\Users\Harold\Documents\Universidad Nacional\2014-I\Tesis\Universidad de los Niños\página\bocetos\indexKids\robotUN.png"
       inkscape:export-xdpi="90"
       inkscape:export-ydpi="90" />
    <rect
       transform="matrix(0.90141797,-0.43294994,0.43269976,0.90153808,0,0)"
       ry="0"
       y="654.27625"
       x="204.39987"
       height="11.57531"
       width="112.29168"
       id="rect3858"
       style="fill:#cccccc;fill-opacity:1;stroke:#000000;stroke-width:1;stroke-miterlimit:4;stroke-opacity:1;stroke-dasharray:none"
       inkscape:export-filename="C:\Users\Harold\Documents\Universidad Nacional\2014-I\Tesis\Universidad de los Niños\página\bocetos\indexKids\robotUN.png"
       inkscape:export-xdpi="90"
       inkscape:export-ydpi="90" />
    <rect
       style="fill:#cccccc;fill-opacity:1;stroke:#000000;stroke-width:1.00000048;stroke-miterlimit:4;stroke-opacity:1;stroke-dasharray:none"
       id="rect3793"
       width="81.703987"
       height="11.694778"
       x="461.83554"
       y="414.11002"
       ry="0"
       transform="matrix(0.98420495,0.17703279,-0.17843645,0.98395144,0,0)"
       inkscape:export-filename="C:\Users\Harold\Documents\Universidad Nacional\2014-I\Tesis\Universidad de los Niños\página\bocetos\indexKids\robotUN.png"
       inkscape:export-xdpi="90"
       inkscape:export-ydpi="90" />
    <path
       style="fill:#cccccc;fill-opacity:1;stroke:#000000;stroke-width:1;stroke-miterlimit:4;stroke-opacity:1;stroke-dasharray:none"
       d="m 348.10592,462.89267 c 1.41187,-6.55022 13.31583,-9.77907 17.33211,-1.86445 23.25421,45.82556 53.76883,94.712 57.37853,146.435 3.81449,54.65735 -94.45569,60.16305 -97.72603,9.52846 -3.1141,-48.21557 12.02543,-103.11259 23.01539,-154.09901 z"
       id="rect3788"
       inkscape:connector-curvature="0"
       sodipodi:nodetypes="sssss"
       inkscape:export-filename="C:\Users\Harold\Documents\Universidad Nacional\2014-I\Tesis\Universidad de los Niños\página\bocetos\indexKids\robotUN.png"
       inkscape:export-xdpi="90"
       inkscape:export-ydpi="90" />
    <path
       style="fill:#cccccc;fill-opacity:1;stroke:#000000;stroke-width:1;stroke-miterlimit:4;stroke-opacity:1;stroke-dasharray:none"
       d="m 350.53512,416.0288 6.58722,-0.35625 4.69476,32.17224 -12.4597,0.67384 z"
       id="rect3783"
       inkscape:connector-curvature="0"
       sodipodi:nodetypes="ccccc"
       inkscape:export-filename="C:\Users\Harold\Documents\Universidad Nacional\2014-I\Tesis\Universidad de los Niños\página\bocetos\indexKids\robotUN.png"
       inkscape:export-xdpi="90"
       inkscape:export-ydpi="90" />
    <path
       sodipodi:type="arc"
       style="fill:#cccccc;fill-opacity:1;stroke:#000000;stroke-width:1.37634409;stroke-miterlimit:4;stroke-opacity:1;stroke-dasharray:none"
       id="path3786"
       sodipodi:cx="374.64285"
       sodipodi:cy="480.57648"
       sodipodi:rx="13.214286"
       sodipodi:ry="13.214286"
       d="m 387.85714,480.57648 a 13.214286,13.214286 0 1 1 -26.42857,0 13.214286,13.214286 0 1 1 26.42857,0 z"
       transform="matrix(0.7265625,0,0,0.7265625,83.957539,104.41181)"
       inkscape:export-filename="C:\Users\Harold\Documents\Universidad Nacional\2014-I\Tesis\Universidad de los Niños\página\bocetos\indexKids\robotUN.png"
       inkscape:export-xdpi="90"
       inkscape:export-ydpi="90" />
    <path
       transform="matrix(0.7265625,0,0,0.7265625,192.55616,160.38351)"
       d="m 387.85714,480.57648 a 13.214286,13.214286 0 1 1 -26.42857,0 13.214286,13.214286 0 1 1 26.42857,0 z"
       sodipodi:ry="13.214286"
       sodipodi:rx="13.214286"
       sodipodi:cy="480.57648"
       sodipodi:cx="374.64285"
       id="path3801"
       style="fill:#cccccc;fill-opacity:1;stroke:#000000;stroke-width:1.37634408;stroke-miterlimit:4;stroke-opacity:1;stroke-dasharray:none"
       sodipodi:type="arc"
       inkscape:export-filename="C:\Users\Harold\Documents\Universidad Nacional\2014-I\Tesis\Universidad de los Niños\página\bocetos\indexKids\robotUN.png"
       inkscape:export-xdpi="90"
       inkscape:export-ydpi="90" />
    <path
       sodipodi:type="arc"
       style="fill:#cccccc;fill-opacity:1;stroke:#000000;stroke-width:1.37634408;stroke-miterlimit:4;stroke-opacity:1;stroke-dasharray:none"
       id="path3807"
       sodipodi:cx="374.64285"
       sodipodi:cy="480.57648"
       sodipodi:rx="13.214286"
       sodipodi:ry="13.214286"
       d="m 387.85714,480.57648 a 13.214286,13.214286 0 1 1 -26.42857,0 13.214286,13.214286 0 1 1 26.42857,0 z"
       transform="matrix(0.7265625,0,0,0.7265625,2.3167708,205.22763)"
       inkscape:export-filename="C:\Users\Harold\Documents\Universidad Nacional\2014-I\Tesis\Universidad de los Niños\página\bocetos\indexKids\robotUN.png"
       inkscape:export-xdpi="90"
       inkscape:export-ydpi="90" />
    <path
       style="fill:#cccccc;fill-opacity:1;stroke:#000000;stroke-width:1;stroke-miterlimit:4;stroke-opacity:1;stroke-dasharray:none"
       d="m 581.96343,431.17604 c -10.52168,2.21912 -13.45918,15.2177 -13.9375,24.53125 -0.55574,6.76902 7.15679,8.53032 12.375,8.75 8.248,0.26165 17.72899,-2.21374 22.84375,-9.03125 1.42012,-7.65669 -4.62294,-14.13219 -9.3125,-19.25 -3.24703,-2.9879 -7.38675,-5.3053 -11.96875,-5 z"
       id="path3813"
       inkscape:connector-curvature="0"
       inkscape:export-filename="C:\Users\Harold\Documents\Universidad Nacional\2014-I\Tesis\Universidad de los Niños\página\bocetos\indexKids\robotUN.png"
       inkscape:export-xdpi="90"
       inkscape:export-ydpi="90" />
    <rect
       style="fill:#cccccc;fill-opacity:1;stroke:#000000;stroke-width:1;stroke-miterlimit:4;stroke-opacity:1;stroke-dasharray:none"
       id="rect3816"
       width="26.263966"
       height="9.0913725"
       x="563.13184"
       y="-425.4382"
       transform="matrix(0.28944376,0.95719502,-0.95719502,0.28944376,0,0)"
       ry="4.5456862"
       inkscape:export-filename="C:\Users\Harold\Documents\Universidad Nacional\2014-I\Tesis\Universidad de los Niños\página\bocetos\indexKids\robotUN.png"
       inkscape:export-xdpi="90"
       inkscape:export-ydpi="90" />
    <rect
       ry="4.4078064"
       transform="matrix(-0.83805017,0.54559317,-0.54335944,-0.83950016,0,0)"
       y="-697.0556"
       x="-300.46878"
       height="8.8156128"
       width="44.169659"
       id="rect3818"
       style="fill:#cccccc;fill-opacity:1;stroke:#000000;stroke-width:1.00000179;stroke-miterlimit:4;stroke-opacity:1;stroke-dasharray:none"
       inkscape:export-filename="C:\Users\Harold\Documents\Universidad Nacional\2014-I\Tesis\Universidad de los Niños\página\bocetos\indexKids\robotUN.png"
       inkscape:export-xdpi="90"
       inkscape:export-ydpi="90" />
    <rect
       style="fill:#cccccc;fill-opacity:1;stroke:#000000;stroke-width:1.0000006;stroke-miterlimit:4;stroke-opacity:1;stroke-dasharray:none"
       id="rect3820"
       width="36.246811"
       height="8.9278173"
       x="-442.66034"
       y="-631.16724"
       transform="matrix(-0.93879715,0.34447048,-0.34297181,-0.9393457,0,0)"
       ry="4.4639087"
       inkscape:export-filename="C:\Users\Harold\Documents\Universidad Nacional\2014-I\Tesis\Universidad de los Niños\página\bocetos\indexKids\robotUN.png"
       inkscape:export-xdpi="90"
       inkscape:export-ydpi="90" />
    <rect
       ry="4.4639087"
       transform="matrix(-0.71928811,0.6947119,-0.6935631,-0.72039588,0,0)"
       y="-723.99536"
       x="-155.64764"
       height="8.9278173"
       width="36.246811"
       id="rect3822"
       style="fill:#cccccc;fill-opacity:1;stroke:#000000;stroke-width:1.0000006;stroke-miterlimit:4;stroke-opacity:1;stroke-dasharray:none"
       inkscape:export-filename="C:\Users\Harold\Documents\Universidad Nacional\2014-I\Tesis\Universidad de los Niños\página\bocetos\indexKids\robotUN.png"
       inkscape:export-xdpi="90"
       inkscape:export-ydpi="90" />
    <rect
       style="fill:#cccccc;fill-opacity:1;stroke:#000000;stroke-width:1.00000095;stroke-miterlimit:4;stroke-opacity:1;stroke-dasharray:none"
       id="rect3824"
       width="29.008764"
       height="6.6998863"
       x="-572.89893"
       y="-524.01392"
       transform="matrix(-0.99347618,0.11403986,-0.11213947,-0.99369248,0,0)"
       ry="3.3499432"
       inkscape:export-filename="C:\Users\Harold\Documents\Universidad Nacional\2014-I\Tesis\Universidad de los Niños\página\bocetos\indexKids\robotUN.png"
       inkscape:export-xdpi="90"
       inkscape:export-ydpi="90" />
    <path
       transform="matrix(0.70558224,0.16971933,-0.18603904,1.2090855,43.381452,28.203917)"
       d="m 387.85714,480.57648 a 13.214286,13.214286 0 1 1 -26.42857,0 13.214286,13.214286 0 1 1 26.42857,0 z"
       sodipodi:ry="13.214286"
       sodipodi:rx="13.214286"
       sodipodi:cy="480.57648"
       sodipodi:cx="374.64285"
       id="path3830"
       style="fill:#cccccc;fill-opacity:1;stroke:#000000;stroke-width:1.06317806;stroke-miterlimit:4;stroke-opacity:1;stroke-dasharray:none"
       sodipodi:type="arc"
       inkscape:export-filename="C:\Users\Harold\Documents\Universidad Nacional\2014-I\Tesis\Universidad de los Niños\página\bocetos\indexKids\robotUN.png"
       inkscape:export-xdpi="90"
       inkscape:export-ydpi="90" />
    <rect
       ry="4.6606808"
       transform="matrix(0.92968782,0.36834841,-0.37202056,0.92822449,0,0)"
       y="533.63403"
       x="457.41315"
       height="9.3213615"
       width="15.131318"
       id="rect3832"
       style="fill:#cccccc;fill-opacity:1;stroke:#000000;stroke-width:1.00000393;stroke-miterlimit:4;stroke-opacity:1;stroke-dasharray:none"
       inkscape:export-filename="C:\Users\Harold\Documents\Universidad Nacional\2014-I\Tesis\Universidad de los Niños\página\bocetos\indexKids\robotUN.png"
       inkscape:export-xdpi="90"
       inkscape:export-ydpi="90" />
    <rect
       style="fill:#cccccc;fill-opacity:1;stroke:#000000;stroke-width:1.00000393;stroke-miterlimit:4;stroke-opacity:1;stroke-dasharray:none"
       id="rect3838"
       width="15.131318"
       height="9.3213615"
       x="711.68384"
       y="-51.622322"
       transform="matrix(0.27055577,0.9627043,-0.96376628,0.26674812,0,0)"
       ry="4.6606808"
       inkscape:export-filename="C:\Users\Harold\Documents\Universidad Nacional\2014-I\Tesis\Universidad de los Niños\página\bocetos\indexKids\robotUN.png"
       inkscape:export-xdpi="90"
       inkscape:export-ydpi="90" />
    <path
       transform="matrix(0.35827772,0,0,0.35827772,102.74934,501.78142)"
       d="m 387.85714,480.57648 a 13.214286,13.214286 0 1 1 -26.42857,0 13.214286,13.214286 0 1 1 26.42857,0 z"
       sodipodi:ry="13.214286"
       sodipodi:rx="13.214286"
       sodipodi:cy="480.57648"
       sodipodi:cx="374.64285"
       id="path3840"
       style="fill:#cccccc;fill-opacity:1;stroke:#000000;stroke-width:2.79113078;stroke-miterlimit:4;stroke-opacity:1;stroke-dasharray:none"
       sodipodi:type="arc"
       inkscape:export-filename="C:\Users\Harold\Documents\Universidad Nacional\2014-I\Tesis\Universidad de los Niños\página\bocetos\indexKids\robotUN.png"
       inkscape:export-xdpi="90"
       inkscape:export-ydpi="90" />
    <rect
       ry="4.5456862"
       transform="matrix(0.11176579,0.99373458,-0.99373458,0.11176579,0,0)"
       y="-138.6389"
       x="701.45343"
       height="9.0913725"
       width="26.263966"
       id="rect3850"
       style="fill:#cccccc;fill-opacity:1;stroke:#000000;stroke-width:1;stroke-miterlimit:4;stroke-opacity:1;stroke-dasharray:none"
       inkscape:export-filename="C:\Users\Harold\Documents\Universidad Nacional\2014-I\Tesis\Universidad de los Niños\página\bocetos\indexKids\robotUN.png"
       inkscape:export-xdpi="90"
       inkscape:export-ydpi="90" />
    <rect
       style="fill:#cccccc;fill-opacity:1;stroke:#000000;stroke-width:1.00000691;stroke-miterlimit:4;stroke-opacity:1;stroke-dasharray:none"
       id="rect3852"
       width="19.452801"
       height="9.2223988"
       x="490.47705"
       y="544.97394"
       transform="matrix(0.90590612,0.42347858,-0.41871353,0.90811837,0,0)"
       ry="4.6111994"
       inkscape:export-filename="C:\Users\Harold\Documents\Universidad Nacional\2014-I\Tesis\Universidad de los Niños\página\bocetos\indexKids\robotUN.png"
       inkscape:export-xdpi="90"
       inkscape:export-ydpi="90" />
    <path
       sodipodi:type="arc"
       style="fill:#cccccc;fill-opacity:1;stroke:#000000;stroke-width:2.79113078;stroke-miterlimit:4;stroke-opacity:1;stroke-dasharray:none"
       id="path3856"
       sodipodi:cx="374.64285"
       sodipodi:cy="480.57648"
       sodipodi:rx="13.214286"
       sodipodi:ry="13.214286"
       d="m 387.85714,480.57648 a 13.214286,13.214286 0 1 1 -26.42857,0 13.214286,13.214286 0 1 1 26.42857,0 z"
       transform="matrix(0.35827772,0,0,0.35827772,81.320765,533.92428)"
       inkscape:export-filename="C:\Users\Harold\Documents\Universidad Nacional\2014-I\Tesis\Universidad de los Niños\página\bocetos\indexKids\robotUN.png"
       inkscape:export-xdpi="90"
       inkscape:export-ydpi="90" />
    <path
       style="fill:#cccccc;fill-opacity:1;stroke:#000000;stroke-width:1;stroke-miterlimit:4;stroke-opacity:1;stroke-dasharray:none"
       d="m 346.73314,655.87231 c 1.73771,-13.66987 18.48736,-14.01773 21.07146,0 4.53276,24.58843 12.68075,73.92854 12.68075,73.92854 l -43.14996,0 z"
       id="rect3864"
       inkscape:connector-curvature="0"
       sodipodi:nodetypes="ssccs"
       inkscape:export-filename="C:\Users\Harold\Documents\Universidad Nacional\2014-I\Tesis\Universidad de los Niños\página\bocetos\indexKids\robotUN.png"
       inkscape:export-xdpi="90"
       inkscape:export-ydpi="90" />
    <path
       sodipodi:type="arc"
       style="fill:#cccccc;fill-opacity:1;stroke:#000000;stroke-width:0.92019564;stroke-miterlimit:4;stroke-opacity:1;stroke-dasharray:none"
       id="path3871"
       sodipodi:cx="328.42584"
       sodipodi:cy="713.58228"
       sodipodi:rx="21.339472"
       sodipodi:ry="21.339472"
       d="m 349.76531,713.58228 a 21.339472,21.339472 0 1 1 -42.67894,-10e-6 l 21.33947,10e-6 z"
       transform="matrix(1.0867254,0,0,-1.0867254,1.6954584,1505.2957)"
       sodipodi:start="0"
       sodipodi:end="3.1415927"
       inkscape:export-filename="C:\Users\Harold\Documents\Universidad Nacional\2014-I\Tesis\Universidad de los Niños\página\bocetos\indexKids\robotUN.png"
       inkscape:export-xdpi="90"
       inkscape:export-ydpi="90" />
    <g
       id="g3972"
       transform="matrix(0.92621331,-0.37699985,0.37699985,0.92621331,-193.68137,188.65832)"
       inkscape:export-filename="C:\Users\Harold\Documents\Universidad Nacional\2014-I\Tesis\Universidad de los Niños\página\bocetos\indexKids\robotUN.png"
       inkscape:export-xdpi="90"
       inkscape:export-ydpi="90">
      <path
         style="fill:#cccccc;fill-opacity:1;stroke:#000000;stroke-width:1;stroke-miterlimit:4;stroke-opacity:1;stroke-dasharray:none"
         d="m 377.14285,653.43359 c 1.73771,-13.66987 18.48736,-14.01773 21.07146,0 4.53276,24.58843 12.68075,73.92854 12.68075,73.92854 l -43.14996,0 z"
         id="path3867"
         inkscape:connector-curvature="0"
         sodipodi:nodetypes="ssccs" />
      <path
         sodipodi:type="arc"
         style="fill:#cccccc;fill-opacity:1;stroke:#000000;stroke-width:0.92019564;stroke-miterlimit:4;stroke-opacity:1;stroke-dasharray:none"
         id="path3873"
         sodipodi:cx="328.42584"
         sodipodi:cy="713.58228"
         sodipodi:rx="21.339472"
         sodipodi:ry="21.339472"
         d="m 349.76531,713.58228 c 0,11.78546 -9.554,21.33947 -21.33947,21.33947 -11.78546,0 -21.33947,-9.55401 -21.33947,-21.33947 0,0 0,-10e-6 0,-10e-6 l 21.33947,10e-6 z"
         transform="matrix(1.0867254,0,0,-1.0867254,32.653573,1504.2855)"
         sodipodi:start="0"
         sodipodi:end="3.1415927" />
    </g>
    <rect
       style="fill:#cccccc;fill-opacity:1;stroke:#000000;stroke-width:1;stroke-miterlimit:4;stroke-opacity:1;stroke-dasharray:none"
       id="rect3809"
       width="5.1352754"
       height="63.284676"
       x="172.56844"
       y="79.450706"
       transform="matrix(0.9827081,-0.18516153,0.18516153,0.9827081,0,0)"
       inkscape:export-filename="C:\Users\Harold\Documents\Universidad Nacional\2014-I\Tesis\Universidad de los Niños\página\bocetos\indexKids\robotUN.png"
       inkscape:export-xdpi="90"
       inkscape:export-ydpi="90" />
    <rect
       style="fill:#cccccc;stroke:#000000;stroke-width:1;stroke-miterlimit:4;stroke-opacity:1;stroke-dasharray:none"
       id="rect2985"
       width="405.71429"
       height="337.14285"
       x="76.725189"
       y="138.61794"
       ry="48.487324"
       transform="matrix(0.9827081,-0.18516153,0.18516153,0.9827081,0,0)"
       inkscape:export-filename="C:\Users\Harold\Documents\Universidad Nacional\2014-I\Tesis\Universidad de los Niños\página\bocetos\indexKids\robotUN.png"
       inkscape:export-xdpi="90"
       inkscape:export-ydpi="90" />
    <path
       style="fill:#1a1a1a;stroke:#000000;stroke-width:1;stroke-miterlimit:4;stroke-opacity:1;stroke-dasharray:none"
       d="M 451.72187,81.807061 C 350.27717,103.20203 247.638,118.68932 146.46419,141.327 c -12.53388,6.81281 -13.40947,23.78618 -9.06734,35.92514 12.53743,56.2558 20.92487,113.33742 32.40076,169.8117 4.40377,21.043 8.38796,42.45609 14.32739,62.99929 8.23146,11.17546 24.70932,10.86598 36.54724,6.29399 98.97468,-20.32644 199.05352,-35.41348 297.52204,-58.04566 11.6564,-8.36936 11.96527,-25.13064 6.75384,-37.33354 -15.60329,-76.74991 -26.74518,-154.5332 -45.37377,-230.585867 -6.1994,-8.493039 -18.02391,-11.147058 -27.85248,-8.584992 z"
       id="rect3755"
       inkscape:connector-curvature="0"
       inkscape:export-filename="C:\Users\Harold\Documents\Universidad Nacional\2014-I\Tesis\Universidad de los Niños\página\bocetos\indexKids\robotUN.png"
       inkscape:export-xdpi="90"
       inkscape:export-ydpi="90" />
    <path
       transform="matrix(0.44256152,-0.08338729,0.08338729,0.44256152,-19.834848,-140.42158)"
       d="m 387.85714,480.57648 a 13.214286,13.214286 0 1 1 -26.42857,0 13.214286,13.214286 0 1 1 26.42857,0 z"
       sodipodi:ry="13.214286"
       sodipodi:rx="13.214286"
       sodipodi:cy="480.57648"
       sodipodi:cx="374.64285"
       id="path3811"
       style="fill:#cccccc;fill-opacity:1;stroke:#000000;stroke-width:2.22050047;stroke-miterlimit:4;stroke-opacity:1;stroke-dasharray:none"
       sodipodi:type="arc"
       inkscape:export-filename="C:\Users\Harold\Documents\Universidad Nacional\2014-I\Tesis\Universidad de los Niños\página\bocetos\indexKids\robotUN.png"
       inkscape:export-xdpi="90"
       inkscape:export-ydpi="90" />
    <path
       style="fill:#00ffff;fill-opacity:1;stroke:none;stroke-width:1;stroke-miterlimit:4;stroke-opacity:1;stroke-dasharray:none"
       d="m 242.10876,193.12903 c -25.64196,4.83145 -40.77292,38.77848 -33.79391,75.81823 0.65429,3.47247 1.47216,6.84847 2.45192,10.11233 -6.19268,-36.35949 8.20616,-72.81306 33.44744,-77.56902 23.26567,-4.38371 47.84739,20.19768 57.2952,51.81089 -0.10406,-0.61542 -0.21593,-1.23401 -0.33224,-1.85129 -6.97901,-37.03974 -33.42644,-63.15259 -59.06839,-58.32114 z"
       id="path3877"
       inkscape:connector-curvature="0"
       sodipodi:nodetypes="sscscsss"
       inkscape:export-filename="C:\Users\Harold\Documents\Universidad Nacional\2014-I\Tesis\Universidad de los Niños\página\bocetos\indexKids\cara.png"
       inkscape:export-xdpi="90"
       inkscape:export-ydpi="90" />
    <path
       sodipodi:nodetypes="sscscsss"
       inkscape:connector-curvature="0"
       id="path3884"
       d="m 399.34207,163.50319 c 25.64196,-4.83145 52.08938,21.28139 59.0684,58.32113 0.65428,3.47248 1.12108,6.91463 1.39629,10.31124 -7.46389,-36.11997 -34.14156,-64.83392 -59.38284,-60.07797 -23.26568,4.38371 -37.2162,36.22533 -34.5115,69.10908 -0.12705,-0.61109 -0.24796,-1.22798 -0.36427,-1.84526 -6.97902,-37.03974 8.15194,-70.98677 33.7939,-75.81822 z"
       style="fill:#00ffff;fill-opacity:1;stroke:none;stroke-width:1;stroke-miterlimit:4;stroke-opacity:1;stroke-dasharray:none"
       inkscape:export-filename="C:\Users\Harold\Documents\Universidad Nacional\2014-I\Tesis\Universidad de los Niños\página\bocetos\indexKids\cara.png"
       inkscape:export-xdpi="90"
       inkscape:export-ydpi="90" />
    <path
       style="fill:#00ffff;fill-opacity:1;stroke:none;stroke-width:1;stroke-miterlimit:4;stroke-opacity:1;stroke-dasharray:none"
       d="m 302.51212,307.52853 c 0.091,0.90612 0.21735,1.80986 0.38859,2.7187 3.68749,19.57061 28.6439,33.83744 47.72456,30.24226 19.08065,-3.59517 37.13384,-25.96584 33.44635,-45.53646 -0.17122,-0.9087 -0.38249,-1.7967 -0.62744,-2.67369 1.87493,18.60982 -17.66667,40.75843 -33.65539,43.77102 -15.98873,3.01259 -42.25047,-10.50598 -47.2768,-28.52181 z"
       id="path3892"
       inkscape:connector-curvature="0"
       sodipodi:nodetypes="cszsczc"
       inkscape:export-filename="C:\Users\Harold\Documents\Universidad Nacional\2014-I\Tesis\Universidad de los Niños\página\bocetos\indexKids\cara.png"
       inkscape:export-xdpi="90"
       inkscape:export-ydpi="90" />
    <rect
       transform="matrix(0.32567303,-0.94548246,0.94539204,0.32593541,0,0)"
       ry="0"
       y="-642.36963"
       x="-523.04144"
       height="11.57531"
       width="112.29168"
       id="rect3897"
       style="fill:#cccccc;fill-opacity:1;stroke:#000000;stroke-width:1;stroke-miterlimit:4;stroke-opacity:1;stroke-dasharray:none" />
    <rect
       style="fill:#cccccc;fill-opacity:1;stroke:#000000;stroke-width:1.00000048;stroke-miterlimit:4;stroke-opacity:1;stroke-dasharray:none"
       id="rect3899"
       width="81.703987"
       height="11.694778"
       x="-668.15381"
       y="-351.34924"
       ry="0"
       transform="matrix(0.75725768,-0.65311622,0.65203543,0.7581885,0,0)" />
    <rect
       style="fill:#cccccc;fill-opacity:1;stroke:#000000;stroke-width:1;stroke-miterlimit:4;stroke-opacity:1;stroke-dasharray:none"
       id="rect3901"
       width="112.29168"
       height="11.57531"
       x="-571.55035"
       y="-45.172169"
       ry="0"
       transform="matrix(0.94102974,-0.33832385,0.33806268,0.9411236,0,0)" />
    <rect
       y="-365.59695"
       x="-762.97327"
       height="63.284676"
       width="5.1352754"
       id="rect3903"
       style="fill:#cccccc;fill-opacity:1;stroke:#000000;stroke-width:1;stroke-miterlimit:4;stroke-opacity:1;stroke-dasharray:none" />
    <rect
       transform="matrix(0.93289974,0.3601362,-0.36146649,0.9323851,0,0)"
       ry="0"
       y="340.54324"
       x="-546.85553"
       height="11.694778"
       width="81.703987"
       id="rect3905"
       style="fill:#cccccc;fill-opacity:1;stroke:#000000;stroke-width:1.00000048;stroke-miterlimit:4;stroke-opacity:1;stroke-dasharray:none" />
    <path
       sodipodi:nodetypes="sssss"
       inkscape:connector-curvature="0"
       id="path3907"
       d="m -663.54088,74.951841 c 2.10435,-6.36164 14.28537,-8.29878 17.43211,0 18.21956,48.049839 43.33051,99.919549 41.3875,151.731939 -2.05325,54.7518 -100.3486,49.71546 -98.18458,-0.97846 2.06064,-48.27206 22.98482,-101.23495 39.36497,-150.753479 z"
       style="fill:#cccccc;fill-opacity:1;stroke:#000000;stroke-width:1;stroke-miterlimit:4;stroke-opacity:1;stroke-dasharray:none" />
    <path
       sodipodi:nodetypes="ccccc"
       inkscape:connector-curvature="0"
       id="path3909"
       d="m -658.535,29.156191 6.59685,0 2.95052,32.37882 -12.4779,0 z"
       style="fill:#cccccc;fill-opacity:1;stroke:#000000;stroke-width:1;stroke-miterlimit:4;stroke-opacity:1;stroke-dasharray:none" />
    <rect
       ry="48.487324"
       y="-306.42972"
       x="-858.81653"
       height="337.14285"
       width="405.71429"
       id="rect3911"
       style="fill:#cccccc;stroke:#000000;stroke-width:1;stroke-miterlimit:4;stroke-opacity:1;stroke-dasharray:none" />
    <path
       inkscape:connector-curvature="0"
       id="path3913"
       d="m -506.77851,-281.01368 c -103.65205,2.24135 -207.38404,-1.54399 -311,1.96875 -13.57861,4.37421 -17.58188,20.89195 -15.5625,33.625 1.90423,57.60448 -0.42269,115.25208 0.3979,172.874711 0.43126,21.49453 0.38168,43.27507 2.4146,64.5627904 6.01985,12.50637 22.27008,15.2533 34.74986,12.9523 101.02689,-1.64865 202.16872,2.05594 303.12514,-1.9523 13.00452,-6.06633 16.4116,-22.4805804 13.54979,-35.4374204 -1.12235,-78.311891 2.3309,-156.813211 -1.89354,-235.000081 -4.51962,-9.49407 -15.64824,-14.29164 -25.78125,-13.59375 z"
       style="fill:#1a1a1a;stroke:#000000;stroke-width:1;stroke-miterlimit:4;stroke-opacity:1;stroke-dasharray:none" />
    <path
       transform="matrix(0.7265625,0,0,0.7265625,-927.47103,-284.15962)"
       d="m 387.85714,480.57648 a 13.214286,13.214286 0 1 1 -26.42857,0 13.214286,13.214286 0 1 1 26.42857,0 z"
       sodipodi:ry="13.214286"
       sodipodi:rx="13.214286"
       sodipodi:cy="480.57648"
       sodipodi:cx="374.64285"
       id="path3915"
       style="fill:#cccccc;fill-opacity:1;stroke:#000000;stroke-width:1.37634408;stroke-miterlimit:4;stroke-opacity:1;stroke-dasharray:none"
       sodipodi:type="arc" />
    <path
       sodipodi:type="arc"
       style="fill:#cccccc;fill-opacity:1;stroke:#000000;stroke-width:1.37634408;stroke-miterlimit:4;stroke-opacity:1;stroke-dasharray:none"
       id="path3917"
       sodipodi:cx="374.64285"
       sodipodi:cy="480.57648"
       sodipodi:rx="13.214286"
       sodipodi:ry="13.214286"
       d="m 387.85714,480.57648 a 13.214286,13.214286 0 1 1 -26.42857,0 13.214286,13.214286 0 1 1 26.42857,0 z"
       transform="matrix(0.7265625,0,0,0.7265625,-825.31585,-191.64911)" />
    <path
       transform="matrix(0.7265625,0,0,0.7265625,-1006.9943,-169.42575)"
       d="m 387.85714,480.57648 a 13.214286,13.214286 0 1 1 -26.42857,0 13.214286,13.214286 0 1 1 26.42857,0 z"
       sodipodi:ry="13.214286"
       sodipodi:rx="13.214286"
       sodipodi:cy="480.57648"
       sodipodi:cx="374.64285"
       id="path3919"
       style="fill:#cccccc;fill-opacity:1;stroke:#000000;stroke-width:1.37634408;stroke-miterlimit:4;stroke-opacity:1;stroke-dasharray:none"
       sodipodi:type="arc" />
    <path
       sodipodi:type="arc"
       style="fill:#cccccc;fill-opacity:1;stroke:#000000;stroke-width:2.22050047;stroke-miterlimit:4;stroke-opacity:1;stroke-dasharray:none"
       id="path3921"
       sodipodi:cx="374.64285"
       sodipodi:cy="480.57648"
       sodipodi:rx="13.214286"
       sodipodi:ry="13.214286"
       d="m 387.85714,480.57648 a 13.214286,13.214286 0 1 1 -26.42857,0 13.214286,13.214286 0 1 1 26.42857,0 z"
       transform="matrix(0.45034891,0,0,0.45034891,-929.03292,-586.71373)" />
    <path
       inkscape:connector-curvature="0"
       id="path3923"
       d="m -435.02098,90.760181 c -10.52168,2.21912 -13.45918,15.217699 -13.9375,24.531249 -0.55574,6.76902 7.15679,8.53032 12.375,8.75 8.248,0.26165 17.72899,-2.21374 22.84375,-9.03125 1.42012,-7.65669 -4.62294,-14.13219 -9.3125,-19.249999 -3.24703,-2.9879 -7.38675,-5.3053 -11.96875,-5 z"
       style="fill:#cccccc;fill-opacity:1;stroke:#000000;stroke-width:1;stroke-miterlimit:4;stroke-opacity:1;stroke-dasharray:none" />
    <rect
       ry="4.5456862"
       transform="matrix(0.28944376,0.95719502,-0.95719502,0.28944376,0,0)"
       y="449.48297"
       x="-57.072346"
       height="9.0913725"
       width="26.263966"
       id="rect3925"
       style="fill:#cccccc;fill-opacity:1;stroke:#000000;stroke-width:1;stroke-miterlimit:4;stroke-opacity:1;stroke-dasharray:none" />
    <rect
       style="fill:#cccccc;fill-opacity:1;stroke:#000000;stroke-width:1.00000179;stroke-miterlimit:4;stroke-opacity:1;stroke-dasharray:none"
       id="rect3927"
       width="44.169659"
       height="8.8156128"
       x="368.32397"
       y="143.0927"
       transform="matrix(-0.83805017,0.54559317,-0.54335944,-0.83950016,0,0)"
       ry="4.4078064" />
    <rect
       ry="4.4639087"
       transform="matrix(-0.93879715,0.34447048,-0.34297181,-0.9393457,0,0)"
       y="38.736149"
       x="395.88757"
       height="8.9278173"
       width="36.246811"
       id="rect3929"
       style="fill:#cccccc;fill-opacity:1;stroke:#000000;stroke-width:1.0000006;stroke-miterlimit:4;stroke-opacity:1;stroke-dasharray:none" />
    <rect
       style="fill:#cccccc;fill-opacity:1;stroke:#000000;stroke-width:1.0000006;stroke-miterlimit:4;stroke-opacity:1;stroke-dasharray:none"
       id="rect3931"
       width="36.246811"
       height="8.9278173"
       x="340.88449"
       y="227.37408"
       transform="matrix(-0.71928811,0.6947119,-0.6935631,-0.72039588,0,0)"
       ry="4.4639087" />
    <rect
       ry="3.3499432"
       transform="matrix(-0.99347618,0.11403986,-0.11213947,-0.99369248,0,0)"
       y="-69.841255"
       x="399.49863"
       height="6.6998863"
       width="29.008764"
       id="rect3933"
       style="fill:#cccccc;fill-opacity:1;stroke:#000000;stroke-width:1.00000095;stroke-miterlimit:4;stroke-opacity:1;stroke-dasharray:none" />
    <path
       sodipodi:type="arc"
       style="fill:#cccccc;fill-opacity:1;stroke:#000000;stroke-width:1.06317806;stroke-miterlimit:4;stroke-opacity:1;stroke-dasharray:none"
       id="path3935"
       sodipodi:cx="374.64285"
       sodipodi:cy="480.57648"
       sodipodi:rx="13.214286"
       sodipodi:ry="13.214286"
       d="m 387.85714,480.57648 a 13.214286,13.214286 0 1 1 -26.42857,0 13.214286,13.214286 0 1 1 26.42857,0 z"
       transform="matrix(0.70558224,0.16971933,-0.18603904,1.2090855,-948.57758,-344.81167)" />
    <rect
       style="fill:#cccccc;fill-opacity:1;stroke:#000000;stroke-width:1.00000393;stroke-miterlimit:4;stroke-opacity:1;stroke-dasharray:none"
       id="rect3937"
       width="15.131318"
       height="9.3213615"
       x="-602.12524"
       y="552.2326"
       transform="matrix(0.92968782,0.36834841,-0.37202056,0.92822449,0,0)"
       ry="4.6606808" />
    <rect
       ry="4.6606808"
       transform="matrix(0.27055577,0.9627043,-0.96376628,0.26674812,0,0)"
       y="802.42603"
       x="87.575882"
       height="9.3213615"
       width="15.131318"
       id="rect3939"
       style="fill:#cccccc;fill-opacity:1;stroke:#000000;stroke-width:1.00000393;stroke-miterlimit:4;stroke-opacity:1;stroke-dasharray:none" />
    <path
       sodipodi:type="arc"
       style="fill:#cccccc;fill-opacity:1;stroke:#000000;stroke-width:2.79113078;stroke-miterlimit:4;stroke-opacity:1;stroke-dasharray:none"
       id="path3941"
       sodipodi:cx="374.64285"
       sodipodi:cy="480.57648"
       sodipodi:rx="13.214286"
       sodipodi:ry="13.214286"
       d="m 387.85714,480.57648 a 13.214286,13.214286 0 1 1 -26.42857,0 13.214286,13.214286 0 1 1 26.42857,0 z"
       transform="matrix(0.35827772,0,0,0.35827772,-889.20969,128.76583)" />
    <rect
       style="fill:#cccccc;fill-opacity:1;stroke:#000000;stroke-width:1;stroke-miterlimit:4;stroke-opacity:1;stroke-dasharray:none"
       id="rect3943"
       width="26.263966"
       height="9.0913725"
       x="219.90785"
       y="805.41473"
       transform="matrix(0.11176579,0.99373458,-0.99373458,0.11176579,0,0)"
       ry="4.5456862" />
    <rect
       ry="4.6111994"
       transform="matrix(0.90590612,0.42347858,-0.41871353,0.90811837,0,0)"
       y="627.13135"
       x="-566.54041"
       height="9.2223988"
       width="19.452801"
       id="rect3945"
       style="fill:#cccccc;fill-opacity:1;stroke:#000000;stroke-width:1.00000691;stroke-miterlimit:4;stroke-opacity:1;stroke-dasharray:none" />
    <path
       transform="matrix(0.35827772,0,0,0.35827772,-910.63826,160.90869)"
       d="m 387.85714,480.57648 a 13.214286,13.214286 0 1 1 -26.42857,0 13.214286,13.214286 0 1 1 26.42857,0 z"
       sodipodi:ry="13.214286"
       sodipodi:rx="13.214286"
       sodipodi:cy="480.57648"
       sodipodi:cx="374.64285"
       id="path3947"
       style="fill:#cccccc;fill-opacity:1;stroke:#000000;stroke-width:2.79113078;stroke-miterlimit:4;stroke-opacity:1;stroke-dasharray:none"
       sodipodi:type="arc" />
    <path
       sodipodi:nodetypes="ssccs"
       inkscape:connector-curvature="0"
       id="path3949"
       d="m -695.00001,266.29073 c 1.73771,-13.66987 18.48736,-14.01773 21.07146,0 4.53276,24.58843 12.68075,73.92854 12.68075,73.92854 l -43.14996,0 z"
       style="fill:#cccccc;fill-opacity:1;stroke:#000000;stroke-width:1;stroke-miterlimit:4;stroke-opacity:1;stroke-dasharray:none" />
    <path
       style="fill:#cccccc;fill-opacity:1;stroke:#000000;stroke-width:1;stroke-miterlimit:4;stroke-opacity:1;stroke-dasharray:none"
       d="m -634.28572,264.86216 c 1.73771,-13.66987 18.48736,-14.01773 21.07146,0 4.53276,24.58843 12.68075,73.92854 12.68075,73.92854 l -43.14996,0 z"
       id="path3951"
       inkscape:connector-curvature="0"
       sodipodi:nodetypes="ssccs" />
    <path
       sodipodi:end="3.1415927"
       sodipodi:start="0"
       transform="matrix(1.0867254,0,0,-1.0867254,-1040.0377,1115.7141)"
       d="m 349.76531,713.58228 a 21.339472,21.339472 0 1 1 -42.67894,-10e-6 l 21.33947,10e-6 z"
       sodipodi:ry="21.339472"
       sodipodi:rx="21.339472"
       sodipodi:cy="713.58228"
       sodipodi:cx="328.42584"
       id="path3953"
       style="fill:#cccccc;fill-opacity:1;stroke:#000000;stroke-width:0.92019564;stroke-miterlimit:4;stroke-opacity:1;stroke-dasharray:none"
       sodipodi:type="arc" />
    <path
       sodipodi:type="arc"
       style="fill:#cccccc;fill-opacity:1;stroke:#000000;stroke-width:0.92019564;stroke-miterlimit:4;stroke-opacity:1;stroke-dasharray:none"
       id="path3955"
       sodipodi:cx="328.42584"
       sodipodi:cy="713.58228"
       sodipodi:rx="21.339472"
       sodipodi:ry="21.339472"
       d="m 349.76531,713.58228 a 21.339472,21.339472 0 1 1 -42.67894,-10e-6 l 21.33947,10e-6 z"
       transform="matrix(1.0867254,0,0,-1.0867254,-978.775,1115.7141)"
       sodipodi:start="0"
       sodipodi:end="3.1415927" />
    <path
       sodipodi:nodetypes="sscscsss"
       inkscape:connector-curvature="0"
       id="path3957"
       d="m -733.37956,-210.42896 c -26.09316,0 -47.24816,30.55835 -47.24816,68.24985 0,3.53358 0.17863,7.00264 0.5371,10.39147 0.64679,-36.87741 21.54644,-70.03452 47.23187,-70.03452 23.67506,0 43.28019,28.70792 46.71107,61.52385 0.0117,-0.62405 0.0163,-1.25266 0.0163,-1.8808 0,-37.6915 -21.155,-68.24985 -47.24816,-68.24985 z"
       style="fill:#00ffff;fill-opacity:1;stroke:none;stroke-width:1;stroke-miterlimit:4;stroke-opacity:1;stroke-dasharray:none" />
    <path
       style="fill:#00ffff;fill-opacity:1;stroke:none;stroke-width:1;stroke-miterlimit:4;stroke-opacity:1;stroke-dasharray:none"
       d="m -573.37954,-210.42896 c 26.09316,0 47.24816,30.55835 47.24816,68.24985 0,3.53358 -0.17863,7.00264 -0.5371,10.39147 -0.64679,-36.87741 -21.54644,-70.03452 -47.23187,-70.03452 -23.67506,0 -43.28019,28.70792 -46.71107,61.52385 -0.0117,-0.62405 -0.0163,-1.25266 -0.0163,-1.8808 0,-37.6915 21.155,-68.24985 47.24816,-68.24985 z"
       id="path3959"
       inkscape:connector-curvature="0"
       sodipodi:nodetypes="sscscsss" />
    <path
       sodipodi:nodetypes="cszsczc"
       inkscape:connector-curvature="0"
       id="path3961"
       d="m -695.20307,-86.823269 c -0.0783,0.90731 -0.12153,1.81881 -0.12153,2.74364 0,19.91498 21.8832,38.55607 41.29961,38.55607 19.4164,0 41.2996,-18.64109 41.2996,-38.55607 0,-0.92469 -0.0432,-1.83646 -0.12153,-2.74364 -1.60331,18.63519 -24.90807,36.78245 -41.17813,36.78245 -16.27007,0 -39.57458,-18.14747 -41.17815,-36.78245 z"
       style="fill:#00ffff;fill-opacity:1;stroke:none;stroke-width:1;stroke-miterlimit:4;stroke-opacity:1;stroke-dasharray:none" />
  </g>
</svg>
